<?xml version="1.0" encoding="utf-8"?>
<!-- Generator: Adobe Illustrator 17.1.0, SVG Export Plug-In . SVG Version: 6.00 Build 0)  -->
<!DOCTYPE svg PUBLIC "-//W3C//DTD SVG 1.1//EN" "http://www.w3.org/Graphics/SVG/1.1/DTD/svg11.dtd">
<svg version="1.1" id="Layer_1" xmlns="http://www.w3.org/2000/svg" xmlns:xlink="http://www.w3.org/1999/xlink" x="0px" y="0px"
	 viewBox="0 0 800 450" enable-background="new 0 0 800 450" xml:space="preserve">
<rect fill="#27BEBF" width="800" height="450"/>
<g>
	<g>
		<path fill="#231F20" d="M57.8,109.6V77.4h15.8V30.6h39.8v46.8h25.6v32.2h-25.6v87.9c0,8.5,7.3,12.6,18,12.6c2.9,0,5.4,0,7.9-0.3
			v33.5c-7.6,1.3-15.2,1.6-22.8,1.6c-25.9,0-43-9.5-43-34.1V109.6H57.8z"/>
	</g>
	<path fill="#231F20" d="M195,241.8h-39.8V69.8H195V241.8z M155.2-7H195v47.1h-39.8V-7z"/>
	<g>
		<path fill="#231F20" d="M302.5,202.9c-7.9,8.5-15.2,12.3-24,12.3c-10.7,0-19.6-6.9-19.6-41.1v-36.7c0-34.1,8.9-41.1,19.6-41.1
			c8.9,0,16.1,3.8,24,12.3V202.9z M305.7,69.8v20.9H305c-7-10.7-24.7-24-42.4-24c-31,0-43.6,24-43.6,68.3v41.7
			c0,44.3,12.6,68.3,43.6,68.3c10.8,0,20.9-5.1,39.8-19v76.5h39.8V69.8H305.7z"/>
		<path fill="#231F20" d="M487.7,69.8v171.9h-38.6v-19.6c-14.5,12.6-28.1,22.8-44.6,22.8c-24.3,0-37-12.3-37-44.3V69.8h39.8v126.4
			c0,11.4,3.8,19,14.6,19c8.2,0,17.4-7.9,25.9-15.5V69.8H487.7z"/>
		<path fill="#231F20" d="M549.7,133v-9.5c0-15.2,7.3-24.7,23.4-24.7c16.1,0,23.4,9.5,23.4,24.7v9.5H549.7z M636.3,165.3v-40.1
			c0-35.1-26.2-58.5-63.2-58.5c-37.9,0-63.2,23.4-63.2,61v56.3c0,37.6,25.3,61,63.2,61c40.1,0,61.3-20.9,63.2-56.3h-39.8
			c0,13.3-6.6,24-23.4,24c-13.3,0-23.4-7.6-23.4-24.7v-22.8H636.3z"/>
		<path fill="#231F20" d="M647.7,109.6V77.4h15.8V30.6h39.8v46.8h25.6v32.2h-25.6v87.9c0,8.5,7.3,12.6,18,12.6c2.8,0,5.4,0,7.9-0.3
			v33.5c-7.6,1.3-15.2,1.6-22.8,1.6c-25.9,0-43-9.5-43-34.1V109.6H647.7z"/>
		<path fill="#231F20" d="M649.1,312.5c0,25.3-4.4,30.7-17.6,30.7c-9.3,0-14.7-9.1-14.7-27.2c0-22.7,4.4-31.5,16.1-31.5
			C643.7,284.5,649.1,293.8,649.1,312.5 M694.5,257.3c-11.5,0-19,6.1-26.9,16.8c-7.8-10.4-22-16.8-34.7-16.8
			c-34.4,0-45.4,23.5-45.4,54.7c0,24.3,5.1,39.7,20,50.4c-7.6,5.1-18.6,12.8-18.6,24.3c0,9.3,5.4,15.7,12.7,20.5
			c-7.3,5.1-18.6,11.7-18.6,22.7c0,16.3,18.1,26.4,50.8,26.4c35.7,0,59.1-11.7,59.1-36.5c0-52.5-77.2-24.5-77.2-42.7
			c0-3.5,3.7-5.9,5.4-8.5c4.6,1.6,8.3,1.9,12.7,1.9c30.3,0,44.5-20.8,44.5-57.1c0-8.8-2-16-3.9-25.6c4.2-1.3,7.3-3.2,10.5-3.2
			c2.4,0,7.1,1.6,9.5,2.1V257.3z M652.5,414.6c9.3,0.8,11.2,2.9,11.2,7.7c0,7.5-8.6,11.5-23.2,11.5c-18.1,0-28.1-3.2-28.1-10.7
			c0-5.3,3.2-8.3,6.4-11.7L652.5,414.6z"/>
		<path fill="#231F20" d="M704.8,405V260h30.1v19.2h0.5c7.1-14.4,16.4-21.9,31.8-21.9v36.3c-5.1-1.6-11-3.7-16.4-3.7
			c-10,0-15.1,8.3-15.1,16V405H704.8z"/>
		<path fill="#231F20" d="M837.2,369.3c-7.3,8-13.9,13.3-23.2,13.3c-8.3,0-13.7-5.6-13.7-15.2c0-15.2,18.6-26.4,36.9-33.3V369.3z
			 M804.2,302.4c0-10.4,7.8-17.9,17.1-17.9c8.8,0,15.9,4.8,15.9,17.3v10.7c-38.3,12.5-67.7,26.9-67.7,60.5c0,23.5,12,34.7,30.5,34.7
			c15.4,0,27.6-6.9,36.6-16.8c1,5.9,1.5,10.4,2.2,14.1h30.8c-1-3.7-1.7-7.7-1.7-11.7v-92c0-25.9-12.5-44-45.2-44
			c-24.7,0-47.1,12.8-49.3,45.1H804.2z"/>
		<path fill="#231F20" d="M367.7,405V260h29.8v16.5c11.2-10.7,21.7-19.2,34.5-19.2c18.8,0,28.6,10.4,28.6,37.3V405h-30.8V298.4
			c0-9.6-2.9-16-11.2-16c-6.4,0-13.5,6.7-20,13.1V405H367.7z"/>
		<path fill="#231F20" d="M508.4,313.3v-8c0-12.8,5.6-20.8,18.1-20.8c12.5,0,18.1,8,18.1,20.8v8H508.4z M575.3,340.5v-33.9
			c0-29.6-20.3-49.3-48.9-49.3c-29.3,0-48.9,19.7-48.9,51.5v47.5c0,31.7,19.5,51.5,48.9,51.5c31,0,47.4-17.6,48.9-47.5h-30.8
			c0,11.2-5.1,20.3-18.1,20.3c-10.3,0-18.1-6.4-18.1-20.8v-19.2H575.3z"/>
		<path fill="#231F20" d="M-33.8,133v-9.5c0-15.2,7.3-24.7,23.4-24.7c16.1,0,23.4,9.5,23.4,24.7v9.5H-33.8z M52.8,165.3v-40.1
			c0-35.1-26.2-58.5-63.2-58.5c-37.9,0-63.2,23.4-63.2,61v56.3c0,37.6,25.3,61,63.2,61c40.1,0,61.3-20.9,63.2-56.3H13
			c0,13.3-6.6,24-23.4,24c-13.3,0-23.4-7.6-23.4-24.7v-22.8H52.8z"/>
		<path fill="#231F20" d="M828.1,199.4c-9.5,9.5-18,15.8-30,15.8c-10.7,0-17.7-6.6-17.7-18c0-18,24-31.3,47.7-39.5V199.4z
			 M785.5,120.1c0-12.3,10.1-21.2,22.1-21.2c11.4,0,20.6,5.7,20.6,20.5v12.6c-49.6,14.9-87.5,31.9-87.5,71.7
			c0,27.8,15.5,41.1,39.5,41.1c19.9,0,35.7-8.2,47.4-19.9c1.3,7,1.9,12.3,2.9,16.8h39.8c-1.3-4.4-2.2-9.2-2.2-13.9v-109
			c0-30.7-16.1-52.1-58.5-52.1c-31.9,0-61,15.2-63.9,53.4H785.5z"/>
	</g>
</g>
</svg>
