<?xml version="1.0" encoding="utf-8"?>
<!-- Generator: Adobe Illustrator 17.1.0, SVG Export Plug-In . SVG Version: 6.00 Build 0)  -->
<!DOCTYPE svg PUBLIC "-//W3C//DTD SVG 1.1//EN" "http://www.w3.org/Graphics/SVG/1.1/DTD/svg11.dtd">
<svg version="1.1" id="Layer_1" xmlns="http://www.w3.org/2000/svg" xmlns:xlink="http://www.w3.org/1999/xlink" x="0px" y="0px"
	 viewBox="0 0 800 450" enable-background="new 0 0 800 450" xml:space="preserve">
<rect x="-290.8" y="-25" fill="#231F20" width="1372.8" height="500"/>
<g>
	<path fill="#FFFFFF" d="M143.9,158.2c0,8.5-6.4,15.6-16.5,15.6c-9.7,0-16-7.1-16-15.6c0-9,6.6-15.8,16.2-15.8
		C137.6,142.4,143.7,149.2,143.9,158.2z M113.1,305V190.2h29V305H113.1z"/>
	<path fill="#FFFFFF" d="M174.1,273.5c9.2,5.4,23.5,10.1,38.4,10.1c18.4,0,28.7-8.7,28.7-21.7c0-12-8-19.1-28-26.4
		c-26.4-9.4-43.1-23.3-43.1-46.2c0-26.2,21.7-45.7,56.3-45.7c17.2,0,29.7,3.8,37.9,8l-6.8,23.3c-5.9-3.1-16.9-7.6-31.8-7.6
		c-18.4,0-26.1,9.7-26.1,19.1c0,12.3,9.2,17.9,30.4,26.2c27.5,10.4,40.7,24.3,40.7,47.2c0,25.7-19.3,47.9-60,47.9
		c-17,0-34.4-4.7-43.1-10.1L174.1,273.5z"/>
	<path fill="#FFFFFF" d="M327.8,160.8v29.5h27.5v21.7h-27.5v50.7c0,14.1,3.8,21.2,14.8,21.2c5.2,0,8-0.2,11.3-1.2l0.5,21.9
		c-4.2,1.7-12,3.1-21,3.1c-10.8,0-19.5-3.5-25-9.4c-6.4-6.6-9.2-17.2-9.2-32.3v-54h-16.2v-21.7h16.2v-21.5L327.8,160.8z"/>
	<path fill="#FFFFFF" d="M484.9,246.6c0,42.2-29.7,61.1-58.9,61.1c-32.3,0-57.4-22.2-57.4-59.2c0-37.7,24.7-60.8,59.3-60.8
		C462,187.6,484.9,211.7,484.9,246.6z M398.5,247.8c0,22.2,11.1,38.9,28.5,38.9c16.5,0,28-16,28-39.4c0-17.9-8-38.7-27.8-38.7
		C406.7,208.6,398.5,228.7,398.5,247.8z"/>
	<path fill="#FFFFFF" d="M508.7,227.2c0-15.6-0.2-26.9-0.9-37h25l1.2,21.7h0.7c5.6-16,19.1-24.3,31.5-24.3c2.8,0,4.5,0.2,6.8,0.7
		v27.1c-2.6-0.5-5.2-0.7-8.7-0.7c-13.6,0-23.3,8.7-25.9,21.9c-0.5,2.6-0.7,5.7-0.7,8.7V305h-28.9V227.2z"/>
	<path fill="#FFFFFF" d="M610.8,255.8c0.7,20.8,16.7,29.7,35.3,29.7c13.4,0,22.8-2.1,31.8-5.2l4.2,19.8c-9.9,4.2-23.5,7.3-40,7.3
		c-37.2,0-59.1-22.9-59.1-58c0-31.8,19.3-61.8,56-61.8c37.2,0,49.4,30.7,49.4,55.9c0,5.4-0.5,9.7-0.9,12.3H610.8z M661.2,235.5
		c0.2-10.6-4.5-28.1-23.8-28.1c-17.9,0-25.4,16.3-26.6,28.1H661.2z"/>
</g>
</svg>
