<?xml version="1.0" encoding="utf-8"?>
<!-- Generator: Adobe Illustrator 17.1.0, SVG Export Plug-In . SVG Version: 6.00 Build 0)  -->
<!DOCTYPE svg PUBLIC "-//W3C//DTD SVG 1.1//EN" "http://www.w3.org/Graphics/SVG/1.1/DTD/svg11.dtd">
<svg version="1.1" id="Layer_1" xmlns="http://www.w3.org/2000/svg" xmlns:xlink="http://www.w3.org/1999/xlink" x="0px" y="0px"
	 viewBox="0 223.9 612 344.2" enable-background="new 0 223.9 612 344.2" xml:space="preserve">
<rect y="223.9" fill="#1C1C1C" width="612" height="344.2"/>
<image overflow="visible" opacity="0.1" width="2880" height="1552" xlink:href="../../../../Desktop/Screen Shot 2014-02-26 at 9.32.14 AM.png"  transform="matrix(0.318 -2.823243e-02 2.823243e-02 0.318 -126.7341 167.1107)">
</image>
<g>
	<path fill="#FFFFFF" d="M253.9,369.1c-0.8-4.9,0.2-13.5,0.7-15.1c1.3-4.7,17.4-1.8,18.4-1.8c6.3,0,16.1-0.8,18.5,0.5
		c3.4,2,2.4,18.5,3.1,20.4c1.1,5,0,17.1,0.2,18.7c0.7,10.8-0.4,24.3,0.8,34.5c0.3,2,0,4.4,0,6.5c-0.2,9.6-9,10.4-11.9,3.7
		c-2.8-6.7-2.1-14.1-3.3-21.1c0-0.8-0.5-1.6-0.7-2.3c-0.3-0.4-2.3-5.4-6.3-4.9c-1.9,0.2-5.4,6.9-4.5,19c0.3,3.2,2.8,10.6,0.1,12.1
		c-8.3,4.7-15.2,1.6-13.8-21.4c0.4-6,0.8-11.9,0.2-17.8c-0.2-3.1-0.9-6.5-0.9-10C254.4,384.1,253.9,369.3,253.9,369.1z M265.1,379.5
		c-0.3,2,0.9,6.2,3.7,7c1.4,0.5,7.7-0.2,10.5-1.2c1.8-1.8,1.2-12.2,0.3-13.5c-1.2-1.6-2.8-2.8-9.3-2.3
		C261.9,370.1,266.3,373.9,265.1,379.5z"/>
	<path fill="#FFFFFF" d="M332.4,356.6c3.6,1,5.7,5.3,7.2,7c5-4.7,6.9-10.3,15.1-10.3c6.3,0,9.4,5.7,13.1,9.9
		c3.6,4.2,6.3,6.5,6.3,12.5c0,4.1-0.3,8.3-0.7,12.4c-0.8,9.2-0.2,25.9-0.2,28.2c0,0.8-1.3,15-1.3,15.8c0,2.4-1.1,7.2-5.9,7.3
		c-7.7,0.2-8.3-5.4-8.3-11.8c0-1.8-0.4-18-0.4-24c0-1.9,1.5-26.5-9.3-26.9c-2.8-0.1-4.8,6.7-4.8,8.8c0,5,0.8,10.1,0.8,15.3
		c0,3.7,0.2,15.9,0.2,18.5c0,1.6-0.5,6.3-0.5,7.3c0,5.3-0.4,10.6-6.8,10.6c-4.9,0-7.3-3-7.3-7.9c0-4.6,1.5-9.9,1.5-15.1
		c0-5-0.7-10.2-0.7-15.1c0-1.2,1.1-20.5-2.5-21.9c-6.7-2.4-9.7,10.1-9.2,14.8c0.9,7.8-0.2,29.8,1.1,36.2c0.9,4.7-2.1,9-7.4,9
		c-1.2,0-5.6-2.4-5.9-4.1v0.2c-1.6-2.3-2.9-61.4-2.9-71.1c0-3,1.3-4.6,4.8-7.6C313.5,350.3,328.8,355.6,332.4,356.6z"/>
	<path fill="#FFFFFF" d="M383.3,370.6c-0.1-3.4-0.7-8.3-0.7-12.5c0-2.4,7.6-5.1,11.2-4.2c7.7,1.9,4.7,11.2,4.3,17.1
		c-0.8,8.5-0.4,16.6,0,25.2c0.2,2.1,0.9,13.2,3.2,18c1.6,3.2,7.6,4.2,9.3,1.8c4.5-6.4,1.3-50.6,2-60.6c0.2-2.8,7.4-3.7,14.2-0.3
		c0.7,1.4,1.8,3,1.8,4.7c0,3.5,0.8,6.4,0.3,9.9c-0.8,6.2,0.2,5.7-0.3,19c-0.3,7.6,0,14.8,1.1,22.7c0.8,3.2,0.9,6.5,1.2,9.7
		c0.5,4.7,2.4,8,1.5,13.1c-2,5.8-12.3,2.9-19,3.7c-4.8,0.5-26.3,5.7-29.8-4.7c-2.5-7.6,0-11.2-0.5-18.8
		C382.6,408.2,383.4,376.7,383.3,370.6z"/>
	<path fill="#FFFFFF" d="M224.5,354.5c0.9,4.9-1.8,9.2-2.4,14.1c-0.2,2.4-0.5,20.3,0,22.3c1.5,5.7,0.2,11.2,0.8,16.8
		c0.5,3.9,2.2,8.1,6,9.6c4.3,1.8,9.4,1.5,13,3.5c5.6,3.2,3.7,14.5,2.8,16.4c-1.9,4.1-18.2,3.7-18.2,3.7c-3.2,0.8-13.2-0.4-14.8-1.2
		c-2.8-2.4-3.3-6.3-2.8-9.6c2.4-15.6,0.4-28.7,0.4-38.6c0-1.6-2-25.9-0.8-36.3c0-1.9,2.4-3.9,4.8-3.5
		C217.7,352.1,223.5,349.8,224.5,354.5z"/>
	<path fill="#FFFFFF" d="M183.1,401c0,0-3.3-1.5-3.6-4.6c0,0-2.7-3.6-4.9-1.8c-2.2,1.8-0.6,0.7-1.2,1.1c-0.5,0.5,0.6,3.7,2.4,3.9
		c0,0,0.9,0.6-0.2,0.6c0,0-2.9,0.5-8.2,2.6c-5.3,2.1-8,2.5-11,3.2c-3,0.6-9,2.7-14,4.4c0,0-0.2,0.4-1.1,0.4c-0.8,0-4.4,0.8-6,1.8
		c0,0-2.5,0.4-3.9-1.3c0,0-15.2-8.2-21.6-12.6c-6.3-4.4-9.6-6.1-9.6-6.1s-2.1-2-1.5-4.3c0,0-0.3-0.6-1.1-0.9c-0.8-0.3,0.5-2.1,1.6-2
		c0.9,0.1,0.2-1.8-1.4-2.1c-1.5-0.4-5.1,0.2-5.3,2.2c-0.2,2.1-1.6,3.7-2.1,4.2c-0.5,0.5-1.1,4.7,1.7,4.7s1.7,1.8,1.7,1.8l3.5,0.4
		l27.9,17.4c0,0,1.5,0.5-0.5,1.7c0,0-11.1,6.3-14,7.5c-2.8,1.1-4,1.5-5.5,1.5s-2.1,1.5-2.1,1.5s-3,2.4-3.9,2.4
		c-0.9,0-2.4,1.4-2.4,1.8c0,0.3-2.6,2-3.4,1.4c0,0-1.1-1.5-2.3-1.8c-1.3-0.2-8.6,1.5-4.1,5.4c0,0,1.7,1.8,1.9,2
		c0.2,0.2,1.9,1.3,5.6-0.5c0,0,0.8-1,2.3-0.8c0.9,0.1,0.8,0.4,1.7-0.7c0,0,9.3-6.2,12.7-8c3.4-1.8,15.1-6.3,16.9-7.7
		c1.8-1.3,5.5-1.1,6.8-0.5c0,0,5.6,3.5,11.9,6.7c6.3,3.2,9.6,5,14.8,10.4c0,0,2.8,4.7,4.7,4.6c0,0,2.6,0.3,4.7-1
		c2-1.3,7.7-1.6,8.2-1.6c0,0,0.2-0.1,0.3-0.2c0.8-0.2-0.2-2.5-0.4-2.6c-0.1-0.1-0.2-0.2-0.2-0.2c-0.1-0.2-0.2-0.2-0.3-0.4
		c0,0-0.5-1.4-1.1-1.9c-1-1.8-3.8-0.2-3.8-0.2l-0.1,0.2c-0.7,0.1-1.5,0.2-2.4,0.2c-1.8,0-3.6,1.6-3.6,1.6s-3.4-0.9-2.1-1.5
		c0,0,0.6,0.6,1,0.3c0.5-0.3,1.6-0.4-0.2-1.7c0,0-8.3-5.7-14.5-8.4c-6.3-2.7-12.8-6.9-12.6-7.2s3.1-1.4,5.2-1.8
		c2.1-0.4,16.2-6.6,36.8-10.4C181.2,403.9,185.4,403.3,183.1,401z"/>
	<g>
		<path fill="#FFFFFF" d="M133.8,390.2c-0.1-0.3-0.2-0.5-0.2-0.5c-1.5-0.7-1,1.8-1,1.8c0.2,3.8-0.6,5.7-0.6,5.7
			c-0.8,0.2-1.7-1.8-2.1-3c-0.2-0.5-0.2-1.3-0.2-1.5c0.2-2.3-0.2-5-0.2-5c-1.7-7,0.8-12.2,0.8-12.2l-0.2,0.7
			c-2.1,12.5,3,13.2,3,13.2c0.3,0.2,0.5,0.1,0.6-0.4l0.3-8l0.2-0.1l0,0l0,0l0.2-0.1c0.5-12-0.5-30.8-0.5-30.8c0-1-2.3-2.1-4.2-1.3
			c-1.9,0.8-6.4,2.6-6.4,2.6c-2.6,1.5-5,0-5,0v4.1c0.8,3.7,2.8,3.7,2.8,3.7c-0.4,0.5-2.7,2.8-2.7,2.8v1.8c3.9,0.7,5.5,3.4,5.5,3.4
			c0.1,0.8,0,2.4,0,2.4c-0.1,0,0.8,0.4,0,0.5c-0.5-0.3-1.3,0.2-1.1,0.8c0.2,0.8-0.3,0.5-0.3,0.5c-0.9-1.3-2.1-2.1-2.1-2.1
			c-1.7-0.7-3.1-3.1-3.1-3.1c-0.8,3.1,2.4,8.6,2.4,8.6c1.1,3.7-0.4,7.1-0.4,7.1c5.4,2.1,4.2,6.7,4.2,6.7l-0.5,0.2v0.7
			c0.5,1.8,1.9,2.7,1.9,2.7c-0.4,5.5,0.3,7.8,0.3,7.8c1.5,4.8,6.4,6.3,8.2,3.1c1.8-3.3,0.9-8.2,0.9-8.2
			C134.2,394.4,134,391.6,133.8,390.2z"/>
		<path fill="#FFFFFF" d="M152.4,369.1v-0.8c0-1.2-1.1-0.8-1.1-0.8c-0.8,0.3-3.1,2.8-3.1,2.8c-0.1,0.5-0.3,0.8-0.5,1
			c-0.1,0.3-0.8,0.1-0.8-0.5c0-0.2-0.1-0.5-0.2-0.5c-0.9-0.2-1.9-1.6-0.8-3.1c1-1.3,3.1-3.1,4.4-3.1c1.4,0,1.8-0.3,1.8-0.3
			c0.4-0.2,0.1-1.2,0.1-1.2s-0.5-0.5-2.2-1.7c-1.8-1.1-1.3-1.8-1.3-1.8c3.9-1.5,2.8-7.4,2.8-7.4c-4.1,0.8-7-0.9-7-0.9
			c-5.8-3.4-8.1-1.6-8.1-1.6c-1.1,1.8-0.8,5.3-0.8,5.3c-0.3,1-0.2,21.3-0.2,27.3c0,0.7,0.1,1.8,0.2,2.8c0,0.3,0.1,0.6,0.1,1.1
			c0.2,1.9,0.5,3.7,0.9,3.7c0,0,5.3-0.6,3.1-13.1l-0.2-0.7c0,0,3.1,9.3,0.4,12.1c0,0,0,3.1,0.2,5.5c0,0.2,0,0.5-0.1,0.7
			c-0.4,1-1.5,3.7-2.3,3.4c0,0-0.8-1.8-0.6-5.7c0,0,0.4-2.8-1.4-1.7c0,0-0.2,0.6-0.2,1.8l-0.1,0.5c-0.1,0.8-0.2,1.2-0.2,1.2
			s-1.8,11.3,4.3,11.2c6-0.1,5.4-11.4,5.4-11.4c-0.1-1.5,0.5-1.7,0.5-1.7c1.4-0.6,1.7-2.1,1.3-2.1c-0.4,0.1-0.4-0.5-0.4-0.5
			c-0.9-4.6,3-6.7,3-6.7c1-0.2,0.7-1.5,0.7-1.5c-0.7-0.8-0.3-4.9-0.3-4.9C150,374,152.4,369.1,152.4,369.1z"/>
	</g>
	<path fill="#FFFFFF" d="M484.8,369.1c-0.8-4.9,0.2-13.5,0.7-15.1c1.3-4.7,17.4-1.8,18.4-1.8c6.3,0,16.1-0.8,18.5,0.5
		c3.4,2,2.4,18.5,3.1,20.4c1.1,5,0,17.1,0.2,18.7c0.7,10.8-0.4,24.3,0.8,34.5c0.3,2,0,4.4,0,6.5c-0.2,9.6-9,10.4-11.9,3.7
		c-2.8-6.7-2.1-14.1-3.3-21.1c0-0.8-0.5-1.6-0.7-2.3c-0.3-0.4-2.3-5.4-6.3-4.9c-1.9,0.2-5.4,6.9-4.5,19c0.2,3.2,2.8,10.6,0.1,12.1
		c-8.3,4.7-15.2,1.6-13.8-21.4c0.4-6,0.8-11.9,0.2-17.8c-0.2-3.1-0.9-6.5-0.9-10C485.3,384.1,484.8,369.3,484.8,369.1z M495.9,379.5
		c-0.2,2,0.9,6.2,3.7,7c1.4,0.5,7.7-0.2,10.5-1.2c1.8-1.8,1.2-12.2,0.3-13.5c-1.2-1.6-2.8-2.8-9.3-2.3
		C492.7,370.1,497.2,373.9,495.9,379.5z"/>
	<path fill="#FFFFFF" d="M455.4,354.5c0.9,4.9-1.8,9.2-2.4,14.1c-0.2,2.4-0.5,20.3,0,22.3c1.5,5.7,0.2,11.2,0.8,16.8
		c0.5,3.9,2.2,8.1,6,9.6c4.3,1.8,9.4,1.5,13,3.5c5.6,3.2,3.7,14.5,2.8,16.4c-1.9,4.1-18.2,3.7-18.2,3.7c-3.2,0.8-13.2-0.4-14.8-1.2
		c-2.8-2.4-3.3-6.3-2.8-9.6c2.4-15.6,0.4-28.7,0.4-38.6c0-1.6-2-25.9-0.8-36.3c0-1.9,2.4-3.9,4.8-3.5
		C448.6,352.1,454.3,349.8,455.4,354.5z"/>
</g>
</svg>
