<?xml version="1.0" encoding="utf-8"?>
<!-- Generator: Adobe Illustrator 17.0.0, SVG Export Plug-In . SVG Version: 6.00 Build 0)  -->
<!DOCTYPE svg PUBLIC "-//W3C//DTD SVG 1.1//EN" "http://www.w3.org/Graphics/SVG/1.1/DTD/svg11.dtd">
<svg version="1.1" id="Layer_1" xmlns="http://www.w3.org/2000/svg" xmlns:xlink="http://www.w3.org/1999/xlink" x="0px" y="0px"
	 width="800px" height="450px" viewBox="0 0 800 450" enable-background="new 0 0 800 450" xml:space="preserve">
<g id="Layer_2">
	<rect x="520" fill="#EEEEEE" width="280" height="450"/>
	<rect fill="#009DD0" width="520" height="450"/>
</g>
<g>
	<path fill="#009DD0" d="M519.148,39.786V23.843h11.938V-0.033h22.148v23.876h13.901v15.943h-13.901v45.239
		c0,3.509,0.444,5.694,1.335,6.558c0.891,0.864,3.613,1.296,8.169,1.296c0.68,0,1.399-0.012,2.159-0.039
		c0.759-0.026,1.505-0.065,2.238-0.118v16.729l-10.603,0.393c-10.577,0.366-17.803-1.465-21.677-5.498
		c-2.514-2.564-3.771-6.519-3.771-11.859v-52.7L519.148,39.786L519.148,39.786z"/>
	<path fill="#009DD0" d="M637.295,24.792c5.971,2.675,10.903,6.896,14.793,12.664c3.507,5.087,5.78,10.986,6.821,17.699
		c0.603,3.933,0.848,9.597,0.737,16.99h-62.351c0.347,8.588,3.332,14.608,8.952,18.064c3.419,2.148,7.532,3.22,12.342,3.22
		c5.099,0,9.242-1.308,12.429-3.927c1.738-1.414,3.274-3.377,4.607-5.891h22.853c-0.603,5.079-3.369,10.237-8.299,15.472
		c-7.668,8.325-18.403,12.488-32.207,12.488c-11.394,0-21.445-3.511-30.154-10.533s-13.063-18.447-13.063-34.274
		c0-14.829,3.931-26.202,11.793-34.115c7.861-7.913,18.066-11.87,30.613-11.87C624.611,20.78,631.323,22.117,637.295,24.792z
		 M603.809,44.128c-3.164,3.261-5.15,7.677-5.963,13.251h38.562c-0.407-5.942-2.394-10.451-5.963-13.527
		c-3.568-3.077-7.993-4.616-13.275-4.616C611.424,39.236,606.971,40.867,603.809,44.128z"/>
	<path fill="#009DD0" d="M688.322,81.333c0.474,3.98,1.5,6.808,3.078,8.482c2.788,2.984,7.943,4.477,15.468,4.477
		c4.419,0,7.931-0.654,10.535-1.964c2.604-1.308,3.906-3.271,3.906-5.89c0-2.514-1.05-4.424-3.146-5.733
		c-2.099-1.309-9.905-3.56-23.417-6.754c-9.729-2.408-16.582-5.419-20.561-9.032c-3.979-3.56-5.969-8.691-5.969-15.394
		c0-7.905,3.108-14.699,9.326-20.381c6.218-5.681,14.968-8.521,26.249-8.521c10.704,0,19.428,2.134,26.17,6.401
		c6.742,4.268,10.613,11.637,11.61,22.109h-22.384c-0.315-2.879-1.129-5.157-2.44-6.833c-2.47-3.036-6.67-4.555-12.603-4.555
		c-4.883,0-8.36,0.76-10.435,2.278c-2.073,1.519-3.11,3.298-3.11,5.34c0,2.566,1.102,4.425,3.309,5.577
		c2.203,1.205,9.994,3.273,23.37,6.205c8.917,2.095,15.602,5.262,20.052,9.503c4.398,4.294,6.598,9.66,6.598,16.101
		c0,8.482-3.161,15.407-9.483,20.773c-6.322,5.367-16.094,8.05-29.314,8.05c-13.483,0-23.438-2.841-29.865-8.521
		c-6.429-5.681-9.641-12.919-9.641-21.716h22.697V81.333z"/>
	<path fill="#009DD0" d="M751.626,39.786V23.843h11.938V-0.033h22.148v23.876h13.901v15.943h-13.901v45.239
		c0,3.509,0.444,5.694,1.335,6.558c0.891,0.864,3.613,1.296,8.169,1.296c0.68,0,1.399-0.012,2.159-0.039
		c0.759-0.026,1.505-0.065,2.238-0.118v16.729l-10.603,0.393c-10.577,0.366-17.803-1.465-21.677-5.498
		c-2.514-2.564-3.771-6.519-3.771-11.859v-52.7L751.626,39.786L751.626,39.786z"/>
</g>
<rect x="520" y="111.604" fill="#009DD0" width="281.833" height="111.571"/>
<g>
	<path fill="#FFFFFF" d="M519.148,151.391v-15.943h11.938v-23.876h22.148v23.876h13.901v15.943h-13.901v45.239
		c0,3.509,0.444,5.694,1.335,6.558c0.891,0.864,3.613,1.296,8.169,1.296c0.68,0,1.399-0.012,2.159-0.039
		c0.759-0.026,1.505-0.065,2.238-0.118v16.729l-10.603,0.393c-10.577,0.366-17.803-1.465-21.677-5.498
		c-2.514-2.564-3.771-6.519-3.771-11.859v-52.7h-11.936V151.391z"/>
	<path fill="#FFFFFF" d="M637.295,136.396c5.971,2.675,10.903,6.896,14.793,12.664c3.507,5.087,5.78,10.986,6.821,17.699
		c0.603,3.933,0.848,9.597,0.737,16.99h-62.351c0.347,8.588,3.332,14.608,8.952,18.064c3.419,2.148,7.532,3.22,12.342,3.22
		c5.099,0,9.242-1.308,12.429-3.927c1.738-1.414,3.274-3.377,4.607-5.891h22.853c-0.603,5.079-3.369,10.237-8.299,15.472
		c-7.668,8.325-18.403,12.488-32.207,12.488c-11.394,0-21.445-3.511-30.154-10.533s-13.063-18.447-13.063-34.274
		c0-14.829,3.931-26.202,11.793-34.115c7.861-7.913,18.066-11.87,30.613-11.87C624.611,132.384,631.323,133.722,637.295,136.396z
		 M603.809,155.732c-3.164,3.261-5.15,7.677-5.963,13.251h38.562c-0.407-5.942-2.394-10.451-5.963-13.527
		c-3.568-3.077-7.993-4.616-13.275-4.616C611.424,150.841,606.971,152.472,603.809,155.732z"/>
	<path fill="#FFFFFF" d="M688.322,192.938c0.474,3.98,1.5,6.808,3.078,8.482c2.788,2.984,7.943,4.477,15.468,4.477
		c4.419,0,7.931-0.654,10.535-1.964c2.604-1.308,3.906-3.271,3.906-5.89c0-2.514-1.05-4.424-3.146-5.733
		c-2.099-1.309-9.905-3.56-23.417-6.754c-9.729-2.408-16.582-5.419-20.561-9.032c-3.979-3.56-5.969-8.691-5.969-15.394
		c0-7.905,3.108-14.699,9.326-20.381c6.218-5.681,14.968-8.521,26.249-8.521c10.704,0,19.428,2.134,26.17,6.401
		c6.742,4.268,10.613,11.637,11.61,22.109h-22.384c-0.315-2.879-1.129-5.157-2.44-6.833c-2.47-3.036-6.67-4.555-12.603-4.555
		c-4.883,0-8.36,0.76-10.435,2.278c-2.073,1.519-3.11,3.298-3.11,5.34c0,2.566,1.102,4.425,3.309,5.577
		c2.203,1.205,9.994,3.273,23.37,6.205c8.917,2.095,15.602,5.262,20.052,9.503c4.398,4.294,6.598,9.66,6.598,16.101
		c0,8.482-3.161,15.407-9.483,20.773c-6.322,5.367-16.094,8.05-29.314,8.05c-13.483,0-23.438-2.841-29.865-8.521
		c-6.429-5.681-9.641-12.919-9.641-21.716h22.697V192.938z"/>
	<path fill="#FFFFFF" d="M751.626,151.391v-15.943h11.938v-23.876h22.148v23.876h13.901v15.943h-13.901v45.239
		c0,3.509,0.444,5.694,1.335,6.558c0.891,0.864,3.613,1.296,8.169,1.296c0.68,0,1.399-0.012,2.159-0.039
		c0.759-0.026,1.505-0.065,2.238-0.118v16.729l-10.603,0.393c-10.577,0.366-17.803-1.465-21.677-5.498
		c-2.514-2.564-3.771-6.519-3.771-11.859v-52.7h-11.936V151.391z"/>
</g>
<rect x="520" y="223.209" fill="#232323" width="281.833" height="111.571"/>
<g>
	<path fill="#009DD0" d="M519.148,262.996v-15.943h11.938v-23.876h22.148v23.876h13.901v15.943h-13.901v45.239
		c0,3.509,0.444,5.694,1.335,6.558c0.891,0.864,3.613,1.296,8.169,1.296c0.68,0,1.399-0.012,2.159-0.039
		c0.759-0.026,1.505-0.065,2.238-0.118v16.729l-10.603,0.393c-10.577,0.366-17.803-1.465-21.677-5.498
		c-2.514-2.564-3.771-6.519-3.771-11.859v-52.7h-11.936V262.996z"/>
	<path fill="#009DD0" d="M637.295,248.001c5.971,2.675,10.903,6.896,14.793,12.664c3.507,5.087,5.78,10.986,6.821,17.699
		c0.603,3.933,0.848,9.597,0.737,16.99h-62.351c0.347,8.588,3.332,14.608,8.952,18.064c3.419,2.148,7.532,3.22,12.342,3.22
		c5.099,0,9.242-1.308,12.429-3.927c1.738-1.414,3.274-3.377,4.607-5.891h22.853c-0.603,5.079-3.369,10.237-8.299,15.472
		c-7.668,8.325-18.403,12.488-32.207,12.488c-11.394,0-21.445-3.511-30.154-10.533s-13.063-18.447-13.063-34.274
		c0-14.829,3.931-26.202,11.793-34.115c7.861-7.913,18.066-11.87,30.613-11.87C624.611,243.989,631.323,245.327,637.295,248.001z
		 M603.809,267.337c-3.164,3.261-5.15,7.677-5.963,13.251h38.562c-0.407-5.942-2.394-10.451-5.963-13.527
		c-3.568-3.077-7.993-4.616-13.275-4.616C611.424,262.446,606.971,264.077,603.809,267.337z"/>
	<path fill="#009DD0" d="M688.322,304.543c0.474,3.98,1.5,6.808,3.078,8.482c2.788,2.984,7.943,4.477,15.468,4.477
		c4.419,0,7.931-0.654,10.535-1.964c2.604-1.308,3.906-3.271,3.906-5.89c0-2.514-1.05-4.424-3.146-5.733
		c-2.099-1.309-9.905-3.56-23.417-6.754c-9.729-2.408-16.582-5.419-20.561-9.032c-3.979-3.56-5.969-8.691-5.969-15.394
		c0-7.905,3.108-14.699,9.326-20.381c6.218-5.681,14.968-8.521,26.249-8.521c10.704,0,19.428,2.134,26.17,6.401
		c6.742,4.268,10.613,11.637,11.61,22.109h-22.384c-0.315-2.879-1.129-5.157-2.44-6.833c-2.47-3.036-6.67-4.555-12.603-4.555
		c-4.883,0-8.36,0.76-10.435,2.278c-2.073,1.519-3.11,3.298-3.11,5.34c0,2.566,1.102,4.425,3.309,5.577
		c2.203,1.205,9.994,3.273,23.37,6.205c8.917,2.095,15.602,5.262,20.052,9.503c4.398,4.294,6.598,9.66,6.598,16.101
		c0,8.482-3.161,15.407-9.483,20.773c-6.322,5.367-16.094,8.05-29.314,8.05c-13.483,0-23.438-2.841-29.865-8.521
		c-6.429-5.681-9.641-12.919-9.641-21.716h22.697V304.543z"/>
	<path fill="#009DD0" d="M751.626,262.996v-15.943h11.938v-23.876h22.148v23.876h13.901v15.943h-13.901v45.239
		c0,3.509,0.444,5.694,1.335,6.558c0.891,0.864,3.613,1.296,8.169,1.296c0.68,0,1.399-0.012,2.159-0.039
		c0.759-0.026,1.505-0.065,2.238-0.118v16.729l-10.603,0.393c-10.577,0.366-17.803-1.465-21.677-5.498
		c-2.514-2.564-3.771-6.519-3.771-11.859v-52.7h-11.936V262.996z"/>
</g>
<rect x="520" y="334.927" fill="#009DD0" width="281.833" height="116.073"/>
<g>
	<path fill="#232323" d="M519.148,376.214v-15.943h11.938v-23.876h22.148v23.876h13.901v15.943h-13.901v45.239
		c0,3.509,0.444,5.694,1.335,6.558c0.891,0.864,3.613,1.296,8.169,1.296c0.68,0,1.399-0.012,2.159-0.039
		c0.759-0.026,1.505-0.065,2.238-0.118v16.729l-10.603,0.393c-10.577,0.366-17.803-1.465-21.677-5.498
		c-2.514-2.564-3.771-6.519-3.771-11.859v-52.7h-11.936V376.214z"/>
	<path fill="#232323" d="M637.295,361.219c5.971,2.675,10.903,6.896,14.793,12.664c3.507,5.087,5.78,10.986,6.821,17.699
		c0.603,3.933,0.848,9.597,0.737,16.99h-62.351c0.347,8.588,3.332,14.608,8.952,18.064c3.419,2.148,7.532,3.22,12.342,3.22
		c5.099,0,9.242-1.308,12.429-3.927c1.738-1.414,3.274-3.377,4.607-5.891h22.853c-0.603,5.079-3.369,10.237-8.299,15.472
		c-7.668,8.325-18.403,12.488-32.207,12.488c-11.394,0-21.445-3.511-30.154-10.533s-13.063-18.447-13.063-34.274
		c0-14.829,3.931-26.202,11.793-34.115c7.861-7.913,18.066-11.87,30.613-11.87C624.611,357.207,631.323,358.545,637.295,361.219z
		 M603.809,380.555c-3.164,3.261-5.15,7.677-5.963,13.251h38.562c-0.407-5.942-2.394-10.451-5.963-13.527
		c-3.568-3.077-7.993-4.616-13.275-4.616C611.424,375.664,606.971,377.295,603.809,380.555z"/>
	<path fill="#232323" d="M688.322,417.761c0.474,3.98,1.5,6.808,3.078,8.482c2.788,2.984,7.943,4.477,15.468,4.477
		c4.419,0,7.931-0.654,10.535-1.964c2.604-1.308,3.906-3.271,3.906-5.89c0-2.514-1.05-4.424-3.146-5.733
		c-2.099-1.309-9.905-3.56-23.417-6.754c-9.729-2.408-16.582-5.419-20.561-9.032c-3.979-3.56-5.969-8.691-5.969-15.394
		c0-7.905,3.108-14.699,9.326-20.381c6.218-5.681,14.968-8.521,26.249-8.521c10.704,0,19.428,2.134,26.17,6.401
		c6.742,4.268,10.613,11.637,11.61,22.109h-22.384c-0.315-2.879-1.129-5.157-2.44-6.833c-2.47-3.036-6.67-4.555-12.603-4.555
		c-4.883,0-8.36,0.76-10.435,2.278c-2.073,1.519-3.11,3.298-3.11,5.34c0,2.566,1.102,4.425,3.309,5.577
		c2.203,1.205,9.994,3.273,23.37,6.205c8.917,2.095,15.602,5.262,20.052,9.503c4.398,4.294,6.598,9.66,6.598,16.101
		c0,8.482-3.161,15.407-9.483,20.773c-6.322,5.367-16.094,8.05-29.314,8.05c-13.483,0-23.438-2.841-29.865-8.521
		c-6.429-5.681-9.641-12.919-9.641-21.716h22.697V417.761z"/>
	<path fill="#232323" d="M751.626,376.214v-15.943h11.938v-23.876h22.148v23.876h13.901v15.943h-13.901v45.239
		c0,3.509,0.444,5.694,1.335,6.558c0.891,0.864,3.613,1.296,8.169,1.296c0.68,0,1.399-0.012,2.159-0.039
		c0.759-0.026,1.505-0.065,2.238-0.118v16.729l-10.603,0.393c-10.577,0.366-17.803-1.465-21.677-5.498
		c-2.514-2.564-3.771-6.519-3.771-11.859v-52.7h-11.936V376.214z"/>
</g>
<g>
	<path fill="#FFFFFF" d="M80.322,434.922c1.369-3.641,3.316-6.742,5.841-9.303c2.523-2.56,5.552-4.544,9.086-5.95
		c3.533-1.406,7.5-2.109,11.899-2.109c4.398,0,8.383,0.703,11.953,2.109c3.569,1.406,6.615,3.391,9.141,5.95
		c2.523,2.561,4.471,5.662,5.841,9.303c1.369,3.643,2.055,7.698,2.055,12.169c0,4.473-0.686,8.511-2.055,12.116
		c-1.371,3.606-3.318,6.689-5.841,9.248c-2.525,2.562-5.571,4.526-9.141,5.896c-3.57,1.369-7.555,2.056-11.953,2.056
		c-4.4,0-8.367-0.687-11.899-2.056c-3.534-1.369-6.563-3.334-9.086-5.896c-2.525-2.559-4.472-5.642-5.841-9.248
		c-1.371-3.605-2.055-7.644-2.055-12.116C78.267,442.62,78.951,438.564,80.322,434.922z M94.276,453.636
		c0.433,2.128,1.171,4.04,2.218,5.733c1.044,1.695,2.434,3.047,4.165,4.057c1.731,1.011,3.895,1.514,6.491,1.514
		s4.776-0.503,6.544-1.514c1.766-1.01,3.172-2.361,4.219-4.057c1.044-1.693,1.785-3.605,2.217-5.733
		c0.433-2.126,0.649-4.309,0.649-6.545c0-2.234-0.217-4.435-0.649-6.599c-0.433-2.163-1.173-4.073-2.217-5.732
		c-1.046-1.658-2.453-3.011-4.219-4.057c-1.768-1.045-3.948-1.568-6.544-1.568s-4.76,0.523-6.491,1.568
		c-1.73,1.046-3.12,2.398-4.165,4.057c-1.046,1.659-1.785,3.569-2.218,5.732c-0.433,2.164-0.649,4.364-0.649,6.599
		C93.627,449.327,93.844,451.51,94.276,453.636z"/>
	<path fill="#FFFFFF" d="M161.884,397.764V475h-15.361v-77.236H161.884z"/>
	<path fill="#FFFFFF" d="M190.441,461.587c2.307,2.235,5.625,3.353,9.952,3.353c3.1,0,5.769-0.773,8.005-2.325
		c2.234-1.55,3.605-3.191,4.11-4.922h13.522c-2.164,6.707-5.481,11.504-9.952,14.387c-4.472,2.886-9.881,4.327-16.226,4.327
		c-4.399,0-8.367-0.703-11.899-2.109c-3.534-1.406-6.528-3.407-8.979-6.004c-2.453-2.596-4.346-5.695-5.679-9.303
		c-1.335-3.605-2.001-7.572-2.001-11.899c0-4.182,0.685-8.075,2.055-11.683c1.369-3.604,3.316-6.724,5.841-9.356
		c2.523-2.632,5.534-4.706,9.033-6.221c3.497-1.514,7.373-2.271,11.628-2.271c4.76,0,8.906,0.92,12.44,2.759
		c3.533,1.839,6.437,4.31,8.708,7.41c2.271,3.102,3.911,6.636,4.922,10.601c1.009,3.967,1.369,8.113,1.082,12.44h-40.349
		C186.872,455.745,188.133,459.352,190.441,461.587z M207.803,432.163c-1.839-2.018-4.634-3.028-8.383-3.028
		c-2.453,0-4.489,0.415-6.112,1.243c-1.623,0.83-2.921,1.858-3.894,3.083c-0.974,1.228-1.66,2.525-2.056,3.895
		c-0.397,1.371-0.632,2.597-0.703,3.678h24.988C210.922,437.14,209.642,434.183,207.803,432.163z"/>
	<path fill="#FFFFFF" d="M273.951,475v-7.788h-0.325c-1.947,3.245-4.472,5.589-7.572,7.031c-3.102,1.441-6.274,2.163-9.52,2.163
		c-4.11,0-7.482-0.541-10.114-1.623c-2.633-1.081-4.706-2.612-6.22-4.597c-1.515-1.982-2.58-4.398-3.191-7.248
		c-0.613-2.848-0.919-6.004-0.919-9.465v-34.399h15.361v31.587c0,4.616,0.72,8.059,2.164,10.33c1.441,2.271,4.002,3.408,7.68,3.408
		c4.182,0,7.21-1.244,9.086-3.732c1.875-2.488,2.812-6.58,2.812-12.277v-29.315h15.361V475H273.951z"/>
	<path fill="#FFFFFF" d="M314.839,419.074v10.385h0.216c0.72-1.73,1.694-3.335,2.921-4.813c1.225-1.478,2.631-2.74,4.219-3.786
		c1.585-1.045,3.281-1.856,5.084-2.435c1.802-0.576,3.678-0.865,5.625-0.865c1.009,0,2.126,0.181,3.354,0.541v14.279
		c-0.722-0.144-1.587-0.271-2.596-0.379c-1.011-0.108-1.984-0.162-2.921-0.162c-2.812,0-5.192,0.47-7.139,1.406
		c-1.947,0.938-3.516,2.218-4.706,3.84c-1.19,1.623-2.039,3.516-2.542,5.68c-0.505,2.163-0.757,4.508-0.757,7.031V475h-15.361
		v-55.926H314.839z"/>
	<path fill="#FFFFFF" d="M356.811,461.587c2.307,2.235,5.625,3.353,9.952,3.353c3.1,0,5.769-0.773,8.005-2.325
		c2.234-1.55,3.605-3.191,4.11-4.922H392.4c-2.164,6.707-5.481,11.504-9.952,14.387c-4.472,2.886-9.881,4.327-16.226,4.327
		c-4.399,0-8.367-0.703-11.899-2.109c-3.534-1.406-6.528-3.407-8.979-6.004c-2.453-2.596-4.346-5.695-5.679-9.303
		c-1.335-3.605-2.001-7.572-2.001-11.899c0-4.182,0.685-8.075,2.055-11.683c1.369-3.604,3.316-6.724,5.841-9.356
		c2.523-2.632,5.534-4.706,9.033-6.221c3.497-1.514,7.373-2.271,11.628-2.271c4.76,0,8.906,0.92,12.44,2.759
		c3.533,1.839,6.437,4.31,8.708,7.41c2.271,3.102,3.911,6.636,4.922,10.601c1.009,3.967,1.369,8.113,1.082,12.44h-40.349
		C353.241,455.745,354.502,459.352,356.811,461.587z M374.172,432.163c-1.839-2.018-4.634-3.028-8.383-3.028
		c-2.453,0-4.489,0.415-6.112,1.243c-1.623,0.83-2.921,1.858-3.894,3.083c-0.974,1.228-1.66,2.525-2.056,3.895
		c-0.397,1.371-0.632,2.597-0.703,3.678h24.988C377.291,437.14,376.011,434.183,374.172,432.163z"/>
	<path fill="#FFFFFF" d="M39.5,462.295c-1.081,0.17-2.217,0.265-3.42,0.265c-3.823,0-7.068-0.738-9.736-2.217
		c-2.668-1.478-4.832-3.443-6.49-5.896c-1.66-2.451-2.867-5.21-3.624-8.275c-0.757-3.064-1.136-6.22-1.136-9.466
		c0-3.389,0.379-6.669,1.136-9.844c0.757-3.172,1.964-6.003,3.624-8.491c1.658-2.488,3.822-4.471,6.49-5.949
		c2.667-1.478,5.913-2.218,9.736-2.218c2.091,0,4.092,0.343,6.003,1.027c1.91,0.687,3.624,1.642,5.138,2.867
		c1.515,1.227,2.775,2.649,3.786,4.272c1.009,1.623,1.658,3.407,1.947,5.354h16.442c-0.505-4.471-1.731-8.438-3.678-11.899
		c-1.947-3.461-4.418-6.363-7.41-8.708c-2.993-2.342-6.382-4.127-10.168-5.354c-3.786-1.225-7.807-1.839-12.062-1.839
		c-5.914,0-11.233,1.047-15.956,3.138c-4.724,2.092-8.708,4.976-11.953,8.653c-3.246,3.678-5.733,7.988-7.464,12.927
		c-1.73,4.94-2.596,10.295-2.596,16.063c0,5.626,0.865,10.872,2.596,15.739c1.731,4.868,4.219,9.105,7.464,12.711
		c3.245,3.606,7.229,6.437,11.953,8.491c4.722,2.056,10.042,3.083,15.956,3.083c1.164,0,2.304-0.045,3.42-0.131V462.295z"/>
</g>
</svg>
