<?xml version="1.0" encoding="utf-8"?>
<!-- Generator: Adobe Illustrator 18.0.0, SVG Export Plug-In . SVG Version: 6.00 Build 0)  -->
<!DOCTYPE svg PUBLIC "-//W3C//DTD SVG 1.1//EN" "http://www.w3.org/Graphics/SVG/1.1/DTD/svg11.dtd">
<svg version="1.1" xmlns="http://www.w3.org/2000/svg" xmlns:xlink="http://www.w3.org/1999/xlink" x="0px" y="0px"
	 viewBox="0 0 800 450" enable-background="new 0 0 800 450" xml:space="preserve">
<g id="Layer_2">
	<rect x="-0.2" y="0.3" fill="#D3EAEF" width="800" height="450"/>
</g>
<g id="Layer_1">
	<g>
		<text transform="matrix(1 0 0 1 -431.4818 367.4082)" fill="#59595C" font-family="'ATAdminister-Book'" font-size="186.0934">Parachutes</text>
		<g>
			<path fill="#E81C56" d="M505.5,330.1c-1.4-0.1-2.7,1.7-3.1,2.4c-0.6,1-1.1,1.9-1.6,2.7l-7.3,12.6c-0.7,0.8-1.3,1.6-1.7,2.4
				c-0.5,0.8-1.1,1.5-1.8,2.2c-0.8,0.3-1.7-0.2-2.5-1.6c-0.8-1.3-1.7-2.4-2.8-3.2c-0.6-0.7-1.5-1.3-2.7-1.8
				c-1.2-0.4-1.9-1.1-2.2-1.9c0.2-0.6,0.8-1.4,1.8-2.3c1-0.9,2-1.7,2.9-2.4l11-9.3c0.7-0.6,1.5-1.3,2.4-2.1c0.9-0.8,0.7-2.6,0.6-3
				c0-0.4-0.6-0.7-1.7-1c-1.1-0.3-2.1-0.6-3.1-0.9l-13.3-3.6c-0.9-0.3-2.1-0.6-3.5-0.9c-1.4-0.4-2.2-0.7-2.4-1.1
				c-0.5-0.8-0.2-1.8,0.6-2.8c0.9-1,1.4-2,1.7-2.9c0.4-0.9,0.8-2.2,1.2-3.6c0.4-1.5,0.9-2.3,1.6-2.3c0.9-0.1,1.7,0.1,2.5,0.7
				c0.8,0.5,1.5,1,2,1.2l11.9,7.8c0.9,0.4,2,1,3.3,1.6c1.2,0.7,2,0.8,2.3,0.4c0.5-0.4,1.4-1.4,1.1-2.3c-0.3-0.9-0.5-1.8-0.7-2.7
				l-2.9-15.8c0-0.7,0-1.6-0.1-2.8c-0.1-1.2,0.6-1.7,2-1.7c0.7,0,1.4,0.1,2.1,0.3c0.7,0.2,1.4,0.3,2.1,0.3c0.9,0,1.7-0.1,2.5-0.3
				c0.8-0.2,1.7-0.3,2.5-0.3c1.4,0,2,0.6,1.7,1.9c-0.3,1.2-0.4,2.2-0.4,2.9l-2.9,15.5c-0.2,0.9-0.3,1.9-0.4,3.1
				c-0.1,1.2,1.3,2.4,1.8,2.5c0.9,0.1,1.7,0,2.5-0.5c0.8-0.5,1.5-0.9,2.1-1.1l11.7-6.7c1-0.6,2-1.1,3.1-1.8c1.1-0.6,1.9-0.9,2.4-0.8
				c0.9,0.1,1.5,0.9,1.8,2.3c0.3,1.4,0.6,2.6,0.8,3.5c0.2,0.9,0.6,1.9,1.3,2.8c0.7,0.9,0.9,2,0.7,3.2c-0.3,0.7-1.1,1.1-2.3,1.4
				c-1.2,0.2-2.3,0.5-3.2,0.7l-13.7,2.5c-0.9,0.2-1.9,0.4-2.9,0.6c-1,0.2-1.7,0.5-1.9,1c-0.1,0.7-0.7,3,0.1,3.9
				c0.8,0.8,1.6,1.5,2.4,2l10.4,9c0.8,0.7,1.7,1.6,2.7,2.6c0.9,1,1.5,1.8,1.6,2.4c-0.3,0.8-1.1,1.4-2.3,1.8
				c-1.2,0.4-2.2,0.9-2.8,1.6c-1.1,0.7-2.1,1.7-3,3c-0.9,1.3-1.8,1.7-2.6,1.4c-0.7-0.7-1.2-1.4-1.7-2.3c-0.4-0.9-0.9-1.7-1.5-2.5
				l-6.5-12.3c-0.5-0.8-0.9-1.6-1.4-2.6C507.3,332.2,506.7,330.2,505.5,330.1z"/>
		</g>
		<path fill="#E81C56" d="M504.5,43.9c-49.2,0-89,39.9-89,89l89,131.8l89-131.8C593.5,83.7,553.6,43.9,504.5,43.9z M431.1,134.8
			c0-6.1,6.5-11.1,14.5-11.1c8,0,14.5,5,14.5,11.1l24.6,85.1l-48.2-76.5C433.2,141.4,431.1,138.3,431.1,134.8z M499.3,240.1
			l-27.8-100.9c-0.8-1.4-1.2-2.9-1.2-4.4c0-6.1,6.5-11.1,14.5-11.1c8,0,14.5,5,14.5,11.1V240.1z M509.4,134.8
			c0-6.1,6.5-11.1,14.5-11.1c8,0,14.5,5,14.5,11.1c0,1.6-0.4,3.1-1.2,4.4l-27.8,100.9V134.8z M523.9,219.9l24.6-85.1
			c0-6.1,6.5-11.1,14.5-11.1s14.5,5,14.5,11.1c0,3.5-2.1,6.6-5.5,8.7L523.9,219.9z"/>
		<text transform="matrix(1 0 0 1 554.7916 367.4062)" fill="#59595C" font-family="'ATAdminister-Book'" font-size="186.0934">org</text>
	</g>
</g>
</svg>
