<?xml version="1.0" encoding="utf-8"?>
<!-- Generator: Adobe Illustrator 18.1.1, SVG Export Plug-In . SVG Version: 6.00 Build 0)  -->
<svg version="1.1" id="Layer_1" xmlns="http://www.w3.org/2000/svg" xmlns:xlink="http://www.w3.org/1999/xlink" x="0px" y="0px"
	 viewBox="0 0 612 792" enable-background="new 0 0 612 792" xml:space="preserve">
<g id="Layer_2">
	<rect x="-0.2" y="224.1" fill="#D3EAEF" width="612" height="344.2"/>
</g>
<g id="Layer_1_1_">
	<g>
		<path fill="#59595C" d="M10,412.7c0,1.4,0,3.5-0.1,6.3s-0.2,5.9-0.3,9.3c-0.1,3.4-0.2,6.7-0.3,10c-0.1,3.3-0.1,6-0.1,8.1
			c1.1-1,2.2-2.1,3.6-3.5c1.4-1.3,3-2.5,4.9-3.8c1.9-1.2,4-2.2,6.4-3c2.4-0.8,5.2-1.2,8.3-1.2c5.8,0,10.4,1.1,13.6,3.3
			c3.3,2.1,5.7,4.9,7.3,8.2c1.6,3.3,2.5,7,3,10.9c0.3,4,0.5,7.7,0.5,11.3v16.6c0,3.6,0.3,6.4,0.8,8.5c0.5,2,1.3,3.5,2,4.3
			c0.8,1,1.7,1.5,2.5,1.7c1,0.2,1.8,0.4,2.5,0.5c0.8,0.1,1.5,0.3,2,0.6c0.5,0.3,0.8,1.1,0.8,2.2c0,2.5-0.8,3.8-2.5,3.8
			c-2.4,0-4.8-0.2-7.2-0.5c-2.3-0.3-4.6-0.5-7-0.5c-3.9,0-7.2,0.2-9.9,0.5c-2.7,0.3-4.4,0.5-5.1,0.5c-0.8,0-1.4-0.4-1.8-1.2
			c-0.4-0.7-0.6-1.6-0.6-2.6c0-1.1,0.3-1.8,1-2.2c0.6-0.3,1.4-0.6,2.3-0.8c1-0.2,2-0.5,3.2-1s2.2-1.2,3.3-2.4c1-1.2,1.6-3.8,1.8-7.9
			c0.2-4,0.3-9,0.3-14.8c0-2.7,0-5.7-0.1-9c0-3.3-0.5-6.4-1.5-9.4c-1-3-2.6-5.4-4.9-7.4c-2.3-2-5.7-3-10.2-3c-4.1,0-7.5,0.5-9.9,1.7
			c-2.5,1.2-4.4,2.6-5.8,4.5s-2.2,3.9-2.7,6.1c-0.5,2.2-0.6,4.4-0.6,6.7v15.3c0,3.3,0,6,0.1,8s0.2,3.7,0.4,5
			c0.2,1.3,0.4,2.2,0.6,2.7c0.2,0.6,0.5,1.1,0.8,1.5c1,1.6,2.1,2.6,3.3,3c1.2,0.4,2.2,0.6,3.3,0.7c1,0.1,1.8,0.2,2.4,0.4
			c0.6,0.1,1,0.7,1,1.7c0,1.1-0.1,2-0.4,2.9c-0.3,0.8-1,1.2-2,1.2c-1.2,0-3.2-0.2-6-0.5c-2.7-0.3-6.3-0.5-10.8-0.5
			c-2,0-3.9,0.2-5.9,0.5c-1.9,0.3-3.9,0.5-5.9,0.5c-1,0-1.7-0.3-2.1-1s-0.6-1.4-0.6-2.2c0-1.1,0.3-1.9,1-2.3
			c0.6-0.4,1.4-0.8,2.2-1.2c1-0.3,1.8-0.6,2.7-1.1s1.8-1.2,2.4-2.2c1-1.7,1.6-3.4,1.7-5c0.1-1.6,0.1-3.9,0.1-6.9
			c0-5.3,0.1-10.6,0.3-15.7s0.3-10.5,0.3-15.6c0-4.8,0-9.4-0.1-14.1c-0.1-4.6-0.1-9.4-0.1-14.3c0-3.7-0.2-6.5-0.7-8.6
			c-0.5-2-1.2-3.5-1.9-4.4c-0.7-1-1.6-1.5-2.4-1.7c-0.8-0.1-1.7-0.3-2.4-0.4s-1.4-0.3-1.9-0.6c-0.5-0.3-0.7-1.2-0.7-2.3
			c0-1,0.3-1.5,1-1.9c0.6-0.3,1.5-0.6,2.6-0.8c1.1-0.2,2.3-0.4,3.7-0.6s2.7-0.7,4.2-1.5c2.6-1.4,4.8-2.6,6.3-3.8
			c1.6-1.1,2.5-1.7,3.1-1.7c0.2,0,0.6,0.3,1.4,1c0.7,0.6,1.2,1.3,1.2,2.1s-0.1,1.5-0.2,1.9s-0.3,1.1-0.4,1.8
			c-0.1,0.7-0.3,1.8-0.4,3.1C10.1,408.2,10,410.1,10,412.7z"/>
		<path fill="#59595C" d="M129.4,504.8c0-0.4,0.1-1.1,0.4-2.1c0.2-1,0.4-3.1,0.5-6.1c-0.8,1-1.9,2-3.2,3.4c-1.3,1.4-2.9,2.6-4.6,3.8
			c-1.8,1.2-3.9,2.2-6.3,3.1c-2.4,0.8-5.2,1.3-8.2,1.3c-3.5,0-6.8-0.6-9.8-1.8c-3-1.2-5.6-2.9-7.8-5c-2.2-2.1-4-4.6-5.3-7.5
			c-1.3-3-2-6.1-2-9.6c0-1.5,0.1-3.6,0.2-6.2s0.3-5.4,0.4-8.1s0.3-5.3,0.4-7.7c0.1-2.3,0.2-4,0.2-5.1c0-3.2-0.2-5.7-0.6-7.4
			s-1.1-3-1.8-3.8c-0.7-0.8-1.5-1.3-2.3-1.5c-0.8-0.2-1.6-0.4-2.3-0.6c-0.7-0.2-1.4-0.5-1.8-1.1c-0.4-0.5-0.6-1.4-0.6-2.7
			c0-1,0.3-1.5,1-1.7s1.6-0.4,2.9-0.4s2.7-0.1,4.5-0.1c1.8,0,3.7-0.2,5.9-0.6c3-0.5,5.1-1,6.4-1.5c1.4-0.5,2.2-0.7,2.4-0.7
			c0.5,0,1,0.3,1.5,1c0.5,0.6,0.7,1.3,0.7,1.7c0,0.5-0.2,1.4-0.7,2.6s-1.1,3.2-1.6,5.8s-1.1,5.9-1.6,10c-0.5,4.1-0.7,9.2-0.7,15.3
			c0,3.6,0.2,7,0.5,10.2c0.3,3.2,1.2,6,2.3,8.3c1.2,2.3,3,4.2,5.2,5.6c2.2,1.4,5.3,2,9.1,2c4.3,0,7.6-0.8,10-2.4
			c2.3-1.7,4.1-3.7,5.2-6.2c1.1-2.5,1.8-5.3,2-8.2c0.2-3,0.4-5.9,0.4-8.6v-12.9c0-3.8-0.3-6.8-0.8-8.8c-0.5-2-1.3-3.6-2.1-4.5
			c-0.8-1-1.8-1.5-2.7-1.7c-1-0.2-1.9-0.4-2.7-0.5s-1.6-0.4-2.1-0.8s-0.8-1.3-0.8-2.7c0-1.1,0.2-1.8,0.5-2.1c0.3-0.3,1-0.4,1.7-0.4
			c0.5,0,1.6,0.1,3.2,0.2s3.4,0.1,5.4-0.1c2.5-0.3,4.5-0.6,6.2-1c1.7-0.3,3-0.6,3.9-1c1-0.3,1.6-0.5,2-0.6c0.4-0.1,0.7-0.2,1-0.2
			c0.4,0,1,0.3,1.6,1.1c0.6,0.7,1,1.2,1,1.5c0,0.3-0.2,1-0.5,1.8c-0.3,1-0.7,2.3-1.2,4.2s-0.8,4.4-1.2,7.5s-0.5,7-0.5,11.6
			c0,8.3,0.1,14.8,0.4,19.5c0.2,4.8,0.6,8.2,1.2,10.6c0.3,1.4,1,2.2,1.8,2.5c1,0.3,1.9,0.5,2.9,0.6s1.9,0.3,2.6,0.6
			c0.7,0.3,1.2,1.2,1.2,2.5c0,1-0.1,1.5-0.3,1.9c-0.2,0.3-0.7,0.6-1.5,1c-0.8,0.3-2,0.6-3.5,1.1c-1.6,0.4-3.7,1.1-6.5,2.1
			c-3,1-4.8,1.8-5.4,2.2c-0.7,0.5-1.3,0.7-1.8,0.7s-1.2-0.4-2.1-1.4C129.8,505.9,129.4,505.2,129.4,504.8z"/>
		<path fill="#59595C" d="M184.5,420.6c0,1,0,1.8-0.1,2.5c-0.1,0.8-0.2,1.8-0.4,2.9c-0.1,1.1-0.3,2.4-0.4,4.1
			c-0.1,1.7-0.1,3.8-0.1,6.5H204c1,0,1.5,0.4,1.7,1.3c0.2,0.8,0.3,1.8,0.3,2.9c0,1.3-0.1,2.2-0.3,3s-0.7,1.2-1.7,1.2h-20.6v33.6
			c0,2.2,0.1,4.4,0.2,6.8c0.1,2.2,0.4,4.3,1,6.1c0.5,1.8,1.3,3.3,2.4,4.4c1.1,1.2,2.6,1.7,4.6,1.7c2.6,0,4.5-0.2,5.9-0.5
			c1.3-0.3,2.3-0.7,3-1.1c0.7-0.3,1.3-0.7,1.6-1.1c0.3-0.3,0.8-0.5,1.5-0.5c0.8,0,1.5,0.3,1.9,0.8c0.4,0.5,0.6,1.3,0.6,2
			c0,0.8-0.5,1.8-1.7,3.1c-1.1,1.3-2.5,2.4-4.3,3.6c-1.8,1.2-3.7,2.2-5.9,3.1c-2.1,0.8-4.3,1.3-6.5,1.3c-3,0-5.5-0.5-7.6-1.6
			c-2.2-1.1-4-2.5-5.4-4.3s-2.5-3.9-3.2-6.4c-0.7-2.4-1.1-5.1-1.1-7.9c0-5.2,0.1-9.9,0.4-14.3c0.3-4.2,0.4-8.2,0.4-11.9
			c0-2.6,0-4.6-0.1-6.2c0-1.6-0.2-2.7-0.4-3.7c-0.2-1-0.6-1.6-1.2-2c-0.5-0.4-1.3-1-2.2-1.6c-0.8-0.5-1.7-0.8-2.5-1
			c-1-0.1-1.7-0.2-2.4-0.3c-0.7-0.1-1.3-0.4-1.7-0.8c-0.4-0.4-0.6-1.4-0.6-2.6c0-0.8,0.2-1.4,0.6-1.7c0.4-0.3,1-0.7,1.7-1.1
			c0.7-0.3,1.6-0.7,2.5-1.3c1-0.5,2-1.3,3.3-2.2c2.4-2,4.2-4.1,5.6-6.4c1.3-2.3,2.4-4.4,3.3-6.4c0.8-2,1.6-3.6,2.1-4.9
			c0.5-1.3,1.3-2,2-2c0.8,0,1.6,0.2,2.2,0.5C184.1,418.4,184.5,419.2,184.5,420.6z"/>
		<path fill="#59595C" d="M228.7,464.5c0,0.4,0,0.7-0.1,1.1c0,0.3-0.1,0.6-0.1,1c0,5.3,0.6,9.8,2,13.7c1.3,3.9,3.1,7.2,5.2,9.7
			c2.1,2.5,4.6,4.4,7.6,5.7c3,1.3,6,1.9,9.3,1.9c3.4,0,6.4-0.7,9.3-2.1c2.7-1.4,5.1-3,7.1-4.6c2-1.7,3.5-3.3,4.8-4.6
			c1.2-1.4,2-2.1,2.2-2.1c0.8,0,1.6,0.3,2.2,0.8c0.7,0.5,1.1,1.4,1.1,2.3c0,1.3-0.7,3.2-2.2,5.5s-3.7,4.6-6.4,7.1
			c-2.9,2.3-6.1,4.3-10,6c-3.9,1.7-8.2,2.5-13,2.5c-4.6,0-8.9-0.8-12.9-2.4s-7.4-3.9-10.4-6.8c-3-3-5.2-6.4-6.9-10.7
			c-1.7-4.2-2.4-8.8-2.4-13.8c0-6.5,1.2-12.3,3.5-17.2c2.3-5,5.3-9.1,8.9-12.5c3.6-3.4,7.6-5.8,11.9-7.5s8.6-2.5,12.6-2.5
			c4.5,0,8.5,0.7,11.8,2.2s6.1,3.4,8.3,5.6c2.2,2.2,3.8,4.5,4.9,7c1.1,2.4,1.6,4.5,1.6,6.5c0,1.7,0,3.1-0.1,4.1
			c0,1.1-0.2,1.9-0.4,2.5c-0.2,0.6-0.5,1.1-1.2,1.2c-0.5,0.2-1.3,0.3-2.2,0.3h-45.8V464.5z M230.3,456.8c0,0.2,0.2,0.4,0.6,0.5
			c0.4,0.1,1.1,0.2,1.7,0.3c0.7,0,1.4,0.1,2.1,0.1s1.3,0,1.8,0h23.7c1.4,0,2.3-0.1,2.7-0.4s0.6-1,0.6-2c0-3.3-1.4-6.1-4.1-8.6
			s-6.5-3.7-11.3-3.7c-3,0-5.5,0.5-7.7,1.5s-4,2.1-5.6,3.5c-1.5,1.4-2.6,2.9-3.4,4.4C230.7,454.2,230.3,455.7,230.3,456.8z"/>
		<path fill="#59595C" d="M289.5,508.3c-0.4,0-1-0.4-1.7-1.2c-0.7-0.7-1.2-1.5-1.2-2c0-0.3,0.3-1.3,1-2.7c0.6-1.6,1-3.4,1-5.4
			c0-1.1-0.1-2.5-0.4-4.3c-0.2-1.8-0.4-3.3-0.4-4.3c0-2.9,0.4-4.6,1.3-5.6c0.8-1,1.8-1.5,3-1.5c1,0,1.7,0.2,1.9,0.7
			c0.3,0.5,0.4,1.2,0.5,2.1c0,1,0.1,2,0.1,3.2c0,1.2,0.3,2.4,1,3.8c1.6,3.7,4,6.3,7.2,7.9s6.5,2.4,10,2.4c4.6,0,8.2-1.3,10.6-3.7
			c2.3-2.4,3.5-5.2,3.5-8c0-2.7-0.8-4.9-2.4-6.5c-1.7-1.7-3.8-3.2-6.4-4.4c-2.6-1.3-5.6-2.6-9-4s-6.8-3.1-10.1-5.2
			c-2.6-1.6-4.8-3.6-6.4-5.9c-1.7-2.3-2.5-5.4-2.5-9.3c0-2.5,0.4-4.9,1.4-7.2c1-2.3,2.4-4.3,4.3-6.1c1.9-1.8,4.4-3.3,7.3-4.3
			c3-1.1,6.3-1.6,10.2-1.6c1.5,0,3,0.1,4.4,0.3c1.5,0.2,2.9,0.4,4.1,0.7s2.4,0.5,3.5,0.7c1,0.2,1.8,0.3,2.2,0.3
			c1.1,0,2.1-0.4,3.2-1.2c1-0.8,1.6-1.2,1.8-1.2c0.8,0,1.5,0.2,2,0.6c0.5,0.4,0.7,1.3,0.7,2.4c0,1.1-0.1,2.2-0.4,3.3
			s-0.4,2.2-0.4,3.3c0,1.6,0,3,0.1,4.1c0,1.2,0.1,2.4,0.1,4s-0.4,2.7-1.3,3.4c-0.8,0.6-1.7,1-2.4,1c-0.6,0-1.1-0.2-1.2-0.6
			c-0.2-0.4-0.4-1.1-0.6-1.8c-0.2-0.7-0.4-1.7-0.7-2.7c-0.3-1.1-0.8-2.2-1.5-3.5c-0.4-0.7-1-1.5-1.5-2.2c-0.6-0.8-1.4-1.5-2.4-2.2
			c-1-0.6-2.2-1.2-3.8-1.6c-1.5-0.4-3.4-0.6-5.6-0.6c-4.2,0-7.3,1-9.3,3s-3,4.1-3,6.4c0,2.5,1,4.5,2.7,6.2c1.9,1.7,4.2,3.2,7,4.4
			s5.8,2.6,9.1,4s6.3,3,9.1,4.8c2.7,1.8,5.1,4,7,6.5c1.9,2.5,2.7,5.8,2.7,9.7c0,3.5-0.7,6.5-2.2,9.3c-1.5,2.6-3.4,4.9-5.7,6.7
			c-2.3,1.8-5,3.2-7.9,4c-3,1-5.8,1.4-8.6,1.4c-4.4,0-8.1-0.4-11.1-1.2c-3-0.7-5-1.2-6-1.2c-2,0-3.6,0.4-4.9,1.2
			C290.8,507.9,290,508.3,289.5,508.3z"/>
		<g>
			<path fill="#E81C56" d="M390.7,475.8c-1.2-0.1-2.2,1.4-2.5,1.9c-0.5,0.8-0.8,1.6-1.3,2.2L381,490c-0.5,0.6-1.1,1.3-1.4,1.9
				c-0.4,0.6-0.8,1.2-1.5,1.8c-0.6,0.2-1.4-0.2-2-1.3c-0.6-1.1-1.4-1.9-2.2-2.5c-0.5-0.5-1.2-1.1-2.2-1.5c-1-0.3-1.6-0.8-1.8-1.6
				c0.2-0.5,0.6-1.2,1.5-1.9c0.8-0.7,1.6-1.4,2.3-1.9l8.9-7.5c0.5-0.5,1.2-1.1,1.9-1.7c0.7-0.6,0.5-2.1,0.5-2.4s-0.5-0.5-1.4-0.8
				c-0.8-0.2-1.7-0.5-2.5-0.7l-10.8-3c-0.7-0.2-1.7-0.5-2.9-0.7c-1.2-0.3-1.8-0.5-1.9-0.8c-0.4-0.6-0.2-1.5,0.5-2.2
				c0.7-0.8,1.2-1.6,1.4-2.3c0.3-0.7,0.6-1.8,1-3c0.3-1.2,0.7-1.9,1.3-1.9c0.7-0.1,1.4,0.1,2,0.5c0.6,0.4,1.2,0.8,1.6,1l9.6,6.3
				c0.7,0.3,1.6,0.8,2.6,1.3c1,0.5,1.6,0.6,1.9,0.3c0.4-0.3,1.2-1.2,0.8-1.9c-0.2-0.7-0.4-1.5-0.5-2.2l-2.3-12.8
				c0-0.5,0-1.3-0.1-2.2s0.5-1.4,1.6-1.4c0.5,0,1.2,0.1,1.7,0.2c0.5,0.2,1.2,0.2,1.7,0.2c0.7,0,1.4-0.1,2-0.2c0.6-0.2,1.4-0.2,2-0.2
				c1.2,0,1.6,0.5,1.4,1.6c-0.2,1-0.3,1.8-0.3,2.3l-2.3,12.6c-0.2,0.7-0.2,1.6-0.3,2.5c-0.1,1,1.1,1.9,1.5,2c0.7,0.1,1.4,0,2-0.4
				c0.6-0.4,1.2-0.7,1.7-0.8l9.5-5.4c0.8-0.5,1.6-0.8,2.5-1.5c0.8-0.5,1.6-0.7,1.9-0.6c0.7,0.1,1.2,0.7,1.5,1.9
				c0.2,1.2,0.5,2.1,0.6,2.9c0.2,0.7,0.5,1.6,1.1,2.2c0.5,0.7,0.7,1.6,0.5,2.5c-0.2,0.5-0.8,0.8-1.9,1.2c-1,0.2-1.9,0.4-2.5,0.5
				l-11.1,2c-0.7,0.2-1.6,0.3-2.3,0.5c-0.8,0.2-1.4,0.4-1.6,0.8c-0.1,0.5-0.5,2.4,0.1,3.2c0.6,0.6,1.3,1.2,1.9,1.6l8.5,7.3
				c0.6,0.5,1.4,1.3,2.2,2.1c0.7,0.8,1.2,1.5,1.3,1.9c-0.2,0.6-0.8,1.2-1.9,1.5c-1,0.3-1.8,0.7-2.2,1.3c-0.8,0.5-1.7,1.4-2.4,2.4
				c-0.7,1.1-1.5,1.4-2.1,1.2c-0.5-0.5-1-1.2-1.4-1.9c-0.3-0.7-0.7-1.4-1.2-2l-5.3-9.9c-0.4-0.6-0.7-1.3-1.2-2.1
				C392.1,477.4,391.6,475.9,390.7,475.8z"/>
		</g>
		<path fill="#E81C56" d="M389.8,244.5c-39.7,0-71.9,32.2-71.9,71.9l71.9,106.5l71.9-106.6C461.8,276.6,429.5,244.5,389.8,244.5z
			 M330.6,317.9c0-5,5.3-9,11.7-9s11.7,4,11.7,9l19.9,68.8l-39-61.8C332.2,323.2,330.6,320.8,330.6,317.9z M385.7,403.1l-22.5-81.6
			c-0.6-1.2-1-2.3-1-3.6c0-5,5.3-9,11.7-9s11.7,4,11.7,9L385.7,403.1L385.7,403.1z M393.8,317.9c0-5,5.3-9,11.7-9s11.7,4,11.7,9
			c0,1.3-0.3,2.5-1,3.6l-22.5,81.6L393.8,317.9L393.8,317.9z M405.6,386.7l19.9-68.8c0-5,5.3-9,11.7-9s11.7,4,11.7,9
			c0,2.9-1.7,5.3-4.4,7.1L405.6,386.7z"/>
		<g enable-background="new    ">
			<path fill="#59595C" d="M472,508.2c-4.4,0-8.8-0.8-13.1-2.4c-4.3-1.7-8.2-4-11.7-7.2c-3.5-3.1-6.3-6.9-8.5-11.3
				c-2.1-4.4-3.3-9.5-3.3-15.3c0-5.7,1.1-10.9,3.3-15.4s5.1-8.5,8.7-11.6c3.6-3.2,7.5-5.6,11.8-7.3c4.3-1.7,8.7-2.5,12.9-2.5
				c4.5,0,9,0.8,13.4,2.6s8.3,4.2,11.8,7.4s6.2,7.1,8.5,11.5c2.1,4.4,3.3,9.4,3.3,14.8c0,5.7-1.1,10.8-3.3,15.3
				c-2.2,4.5-5.1,8.3-8.6,11.5c-3.5,3.2-7.5,5.6-11.8,7.3C480.9,507.3,476.5,508.2,472,508.2z M495.4,477.3c0-4.3-0.6-8.6-1.8-12.9
				c-1.2-4.2-3-8-5.1-11.4c-2.2-3.4-5-6.1-8.2-8.2c-3.3-2.1-6.9-3.2-10.9-3.2c-2.9,0-5.4,0.5-7.9,1.7c-2.4,1.2-4.6,2.7-6.4,4.9
				c-1.9,2.1-3.3,4.6-4.3,7.6c-1.1,3-1.6,6.2-1.6,9.8c0,5,0.7,9.7,2.3,13.9c1.6,4.3,3.6,8.1,6,11.3c2.4,3.3,5.3,5.8,8.5,7.7
				c3.2,1.9,6.3,2.7,9.5,2.7c3,0,5.6-0.5,8-1.7c2.4-1.2,4.5-2.9,6.3-5c1.8-2.1,3.2-4.8,4.1-7.7C494.8,484.2,495.4,480.9,495.4,477.3
				z"/>
			<path fill="#59595C" d="M542.6,435.9c0,1-0.2,2.2-0.6,4c-0.4,1.8-0.6,4.5-0.7,8.1c0.8-1.4,1.8-2.9,3.1-4.4c1.3-1.6,2.7-3,4.3-4.2
				c1.7-1.3,3.5-2.3,5.5-3.2c2-0.8,4.2-1.3,6.7-1.3c3,0,5.3,0.8,7.1,2.4c1.8,1.7,2.7,3.7,2.7,6.1c0,2.2-0.7,4.1-2.3,5.7
				s-3.6,2.4-6.1,2.4c-1.3,0-2.3-0.2-3.2-0.7c-0.8-0.5-1.5-1.1-2.2-1.7c-0.6-0.6-1.3-1.2-1.8-1.7c-0.5-0.5-1.3-0.7-2-0.7
				c-2.1,0-3.9,0.5-5.4,1.7c-1.5,1.1-2.6,2.5-3.5,4.3c-1,1.8-1.6,3.9-2,6.2s-0.6,4.8-0.6,7.3v18.1c0,4,0.4,7.1,1.2,9.3
				c0.8,2.1,1.8,3.7,3,4.6c1.2,1,2.5,1.5,4,1.7s2.7,0.4,4,0.5c1.2,0.1,2.2,0.4,3,1c0.8,0.4,1.2,1.5,1.2,3c0,0.6-0.2,1.2-0.7,1.8
				c-0.5,0.6-1.1,1-1.8,1c-3.2,0-6.3-0.2-9.5-0.6c-3.1-0.4-6.2-0.6-9.5-0.6c-3.5,0-6.4,0.1-8.8,0.4c-2.3,0.3-4.5,0.4-6.5,0.4
				c-1.1,0-1.9-0.1-2.2-0.4c-0.4-0.2-0.6-1.3-0.6-3c0-1,0.3-1.6,0.8-2c0.5-0.4,1.3-0.7,2.1-1c0.8-0.2,1.8-0.4,2.7-0.6
				c1-0.2,1.9-0.6,2.7-1.3c1.3-1,2.2-2.9,2.7-5.4c0.5-2.6,0.8-5.8,0.8-9.5v-16.8c0-4.6-0.3-8.1-1-10.6c-0.6-2.4-1.4-4.1-2.2-5.1
				c-0.8-1-1.8-1.6-2.9-1.7c-1.1-0.1-2-0.2-2.9-0.3c-0.8-0.1-1.6-0.4-2.2-1c-0.6-0.5-1-1.7-1-3.6c0-0.6,0.3-1.1,0.8-1.3
				c0.5-0.2,1.4-0.4,2.3-0.6s2.2-0.5,3.7-1c1.5-0.4,3.1-1.1,4.9-2c1.9-1,3.4-1.8,4.5-2.5c1.1-0.8,2-1.5,2.5-2c0.6-0.5,1.1-1,1.3-1.2
				c0.2-0.3,0.4-0.4,0.6-0.4c0.3,0,1,0.2,2,0.6C542.1,435,542.6,435.5,542.6,435.9z"/>
			<path fill="#59595C" d="M591.2,487.2c1-0.4,1.8-0.8,2.5-1.2c0.8-0.4,1.7-1.1,2.7-2.1c-1.8-0.5-3.8-1.4-5.9-2.5s-4.1-2.7-6-4.6
				c-1.9-1.9-3.5-4.2-4.8-6.9c-1.3-2.6-1.9-5.7-1.9-9.3c0-3.3,0.7-6.5,2.3-9.6s3.7-5.8,6.3-8.1c2.6-2.3,5.8-4.1,9.5-5.6
				c3.7-1.4,7.6-2.1,11.8-2.1c3.1,0,6.3,0.5,9.7,1.6s7.2,1.6,11.5,1.6c2.7,0,4.9-0.1,6.4-0.4c1.6-0.2,2.7-0.5,3.7-1
				c1-0.3,1.6-0.6,2.1-1c0.5-0.2,1.1-0.4,1.7-0.4c0.8,0,1.4,0.4,1.6,1.3c0.2,0.8,0.4,1.7,0.4,2.4c0,3.7-0.6,6.2-2,7.6
				c-1.3,1.4-2.9,2-4.6,2s-3.6-0.3-5.3-1.1c-1.7-0.7-3.4-1.5-5.1-2.2c1.1,1.3,2.3,3,3.5,5c1.3,2,1.9,4.9,1.9,8.5c0,4.9-1,8.9-3,12.1
				c-2,3.3-4.3,5.9-7.2,7.9c-2.9,2-5.9,3.5-9.2,4.3c-3.3,0.8-6.1,1.5-8.7,1.6c-1.1,0.1-2.1,0.5-3,1.2c-1,0.6-1.7,1.4-2.3,2.2
				c-0.6,0.8-1.2,1.7-1.6,2.4c-0.4,0.7-0.6,1.3-0.6,1.5c0,1.8,1.1,3.1,3.3,3.8s4.9,1.2,8.1,1.5c3.2,0.3,6.5,0.6,10.1,1
				c3.6,0.3,6.8,1,9.5,2c4.2,1.6,7.7,3.9,10.6,6.9c2.9,3,4.2,6.8,4.2,11.3c0,3-1,6-2.7,9c-1.8,3-4.4,5.7-7.7,8.1
				c-3.4,2.4-7.4,4.4-12.1,5.9c-4.8,1.6-10.1,2.3-16.1,2.3c-5.3,0-10-0.6-14.2-1.8c-4.1-1.2-7.5-2.7-10.4-4.8
				c-2.7-2-4.9-4.1-6.2-6.5c-1.4-2.4-2.1-4.8-2.1-7.1c0-2.9,0.6-5.3,2-7.4c1.3-2.1,3-3.9,4.9-5.4c2-1.5,4-2.7,6.1-3.8
				c2.1-1.1,4-1.9,5.7-2.5c-2.4-1.6-4.5-3.2-6.3-4.6s-2.7-3.7-2.7-6.7c0-1,0.1-1.6,0.4-2c0.2-0.4,0.6-1.1,1.2-1.9
				c0.8-0.4,1.9-0.7,3.4-1.1C588.1,488.3,589.6,487.8,591.2,487.2z M630.7,523.4c0-2-0.5-3.9-1.6-5.8c-1.1-1.9-2.6-3.5-4.9-4.9
				c-2.1-1.4-5-2.5-8.2-3.4c-3.4-0.8-7.3-1.3-11.8-1.3c-2.6,0-5.1,0.3-7.5,1c-2.4,0.6-4.5,1.6-6.3,2.7c-1.8,1.2-3.3,2.5-4.3,4.1
				s-1.7,3.3-1.7,5.1c0,4.6,2.1,8.6,6.3,11.7c4.2,3.2,10.1,4.9,17.7,4.9c3.9,0,7.3-0.4,10-1.4c2.9-1,5.1-2,6.9-3.4s3.2-2.9,4-4.5
				C630.3,526.6,630.7,525,630.7,523.4z M620.7,462.1c0-3.4-0.4-6.4-1.4-9c-1-2.6-2.1-4.9-3.5-6.7c-1.5-1.8-3.1-3.2-5-4
				c-1.9-1-3.7-1.4-5.6-1.4s-3.7,0.4-5.4,1.2c-1.7,0.7-3.1,1.8-4.3,3.1c-1.3,1.3-2.2,2.9-3,4.5c-0.7,1.8-1.1,3.6-1.1,5.5
				c0,6.8,1.3,12.3,3.8,16.6c2.5,4.3,6.4,6.5,11.8,6.5c3.8,0,7-1.4,9.6-4.2C619.3,471.5,620.7,467.4,620.7,462.1z"/>
		</g>
	</g>
</g>
</svg>
