<?xml version="1.0" encoding="utf-8"?>
<!-- Generator: Adobe Illustrator 17.0.0, SVG Export Plug-In . SVG Version: 6.00 Build 0)  -->
<!DOCTYPE svg PUBLIC "-//W3C//DTD SVG 1.1//EN" "http://www.w3.org/Graphics/SVG/1.1/DTD/svg11.dtd">
<svg version="1.1" id="Layer_1" xmlns="http://www.w3.org/2000/svg" xmlns:xlink="http://www.w3.org/1999/xlink" x="0px" y="0px"
	 width="800px" height="450px" viewBox="0 0 800 450" enable-background="new 0 0 800 450" xml:space="preserve">
<rect x="-9.869" y="-10.5" fill="#CCCCCC" width="817.369" height="466"/>
<g enable-background="new    ">
	<path fill="#FFFFFF" d="M124.735,179.243c7.954,0,16.731,1.098,24,7.543c7.817,6.857,8.915,15.909,8.915,22.218
		c0,11.521-4.389,17.966-7.817,21.532c-7.269,7.405-16.869,8.092-23.315,8.092h-12.892v32.092H92.506v-91.477H124.735z
		 M113.626,221.347h7.543c2.88,0,7.955-0.137,11.383-3.428c1.92-1.921,3.429-5.075,3.429-9.052c0-3.841-1.372-6.995-3.429-8.915
		c-3.154-3.017-7.68-3.429-11.794-3.429h-7.131V221.347z"/>
	<path fill="#FFFFFF" d="M248.299,233.416c0,8.777-1.097,19.612-10.148,28.938c-8.777,9.052-18.926,10.424-28.526,10.424
		c-9.601,0-19.749-1.372-28.526-10.424c-9.052-9.325-10.149-20.16-10.149-28.938v-54.173h21.121v53.624
		c0,3.978,0.274,10.697,4.8,15.36c3.703,3.978,8.777,4.801,12.755,4.801c3.977,0,9.051-0.823,12.754-4.801
		c4.526-4.663,4.8-11.383,4.8-15.36v-53.624h21.12V233.416z"/>
	<path fill="#FFFFFF" d="M268.318,270.72v-91.477h18.377l49.647,58.973v-58.973h21.121v91.477h-18.378l-49.646-59.247v59.247
		H268.318z"/>
	<path fill="#FFFFFF" d="M398.601,217.37l31.269-38.127h25.784l-37.03,43.338l39.91,48.139h-27.155l-32.778-40.596v40.596H377.48
		v-91.477h21.121V217.37z"/>
</g>
<g enable-background="new    ">
	<path fill="#232323" d="M567.422,267.84c-8.092,4.114-14.675,4.938-20.161,4.938c-16.869,0-28.252-5.761-35.932-13.304
		c-8.229-7.954-14.264-20.023-14.264-34.698c0-14.399,6.034-26.469,14.264-34.423c8.091-7.817,19.886-13.166,34.149-13.166
		c6.034,0,13.028,1.234,21.943,5.074v24.412c-4.663-4.938-11.658-9.737-21.396-9.737c-7.68,0-13.852,2.468-18.651,7.131
		c-5.074,4.938-8.641,12.344-8.641,21.121c0,9.463,3.841,16.183,7.955,20.16c1.92,1.92,8.503,7.681,19.749,7.681
		c5.485,0,12.892-1.509,20.983-9.464V267.84z"/>
	<path fill="#232323" d="M631.465,201.599c-6.857-6.172-12.755-6.584-15.36-6.584c-2.88,0-6.446,0.412-8.915,3.155
		c-1.371,1.371-2.331,3.429-2.331,5.76c0,2.194,0.686,3.84,2.057,5.074c2.194,2.058,5.349,2.88,11.521,5.212l6.857,2.605
		c3.978,1.509,8.914,3.565,12.48,6.994c5.349,5.075,6.72,11.658,6.72,17.007c0,9.463-3.291,17.691-8.092,22.629
		c-8.091,8.503-19.886,9.326-25.92,9.326c-6.583,0-12.344-0.96-18.104-3.841c-4.663-2.331-10.012-6.583-13.44-10.012l10.972-15.086
		c2.332,2.332,6.034,5.486,8.503,6.995c3.566,2.194,7.269,3.291,11.521,3.291c2.743,0,6.583-0.549,9.601-3.154
		c1.782-1.509,3.291-3.978,3.291-7.406c0-3.017-1.234-4.937-3.154-6.583c-2.469-2.057-8.092-4.114-10.697-5.074l-7.543-2.605
		c-4.252-1.509-9.188-3.429-12.755-7.269c-4.8-5.075-5.485-11.521-5.485-15.909c0-8.092,2.469-14.949,7.954-20.572
		c6.446-6.583,14.126-8.365,22.629-8.365c6.309,0,16.458,1.097,27.155,9.051L631.465,201.599z"/>
	<path fill="#232323" d="M706.891,201.599c-6.857-6.172-12.755-6.584-15.36-6.584c-2.88,0-6.446,0.412-8.915,3.155
		c-1.371,1.371-2.331,3.429-2.331,5.76c0,2.194,0.686,3.84,2.057,5.074c2.194,2.058,5.349,2.88,11.521,5.212l6.857,2.605
		c3.978,1.509,8.914,3.565,12.48,6.994c5.349,5.075,6.72,11.658,6.72,17.007c0,9.463-3.291,17.691-8.092,22.629
		c-8.091,8.503-19.886,9.326-25.92,9.326c-6.583,0-12.344-0.96-18.104-3.841c-4.663-2.331-10.012-6.583-13.44-10.012l10.972-15.086
		c2.332,2.332,6.034,5.486,8.503,6.995c3.566,2.194,7.269,3.291,11.521,3.291c2.743,0,6.583-0.549,9.601-3.154
		c1.782-1.509,3.291-3.978,3.291-7.406c0-3.017-1.234-4.937-3.154-6.583c-2.469-2.057-8.092-4.114-10.697-5.074l-7.543-2.605
		c-4.252-1.509-9.188-3.429-12.755-7.269c-4.8-5.075-5.485-11.521-5.485-15.909c0-8.092,2.469-14.949,7.954-20.572
		c6.446-6.583,14.126-8.365,22.629-8.365c6.309,0,16.458,1.097,27.155,9.051L706.891,201.599z"/>
</g>
<g enable-background="new    ">
	<path d="M97.024,326.922l-5.006,40.938h-5.074l5.006-40.938H80.841l0.617-4.8h27.292l-0.617,4.8H97.024z"/>
	<path d="M112.795,317.871h4.938l-3.086,24.823c0.137-0.206,1.372-1.715,2.88-2.675c1.783-1.097,3.703-1.303,5.212-1.303
		c2.057,0,4.731,0.411,6.857,2.469c1.92,1.92,2.263,4.251,2.263,6.377c0,1.44-0.206,3.018-0.412,4.731l-1.92,15.566h-4.938
		l1.714-14.194c0.137-1.166,0.412-3.566,0.412-4.869c0-1.166-0.137-2.948-1.44-4.251c-0.823-0.823-2.194-1.44-3.978-1.44
		c-2.194,0-3.977,0.823-5.074,1.988c-1.92,1.989-2.469,5.349-2.812,7.887l-1.852,14.88h-4.937L112.795,317.871z"/>
	<path d="M164.703,360.592c-1.303,2.194-3.36,4.594-5.28,5.897c-2.812,1.852-5.829,2.194-8.229,2.194
		c-3.36,0-6.583-0.617-9.395-3.566c-1.714-1.782-3.771-4.937-3.771-10.217c0-4.869,1.852-9.189,4.869-12.206
		c2.949-2.949,6.172-3.978,9.943-3.978c4.8,0,7.611,1.714,9.257,3.36c2.057,2.126,3.977,6.034,3.223,12.549h-22.149
		c-0.068,4.046,1.303,6.309,2.537,7.543c1.646,1.646,3.566,2.126,5.623,2.126c1.646,0,3.634-0.274,5.486-1.577
		c1.44-1.029,2.88-2.881,3.703-4.389L164.703,360.592z M160.589,350.512c-0.068-2.058-0.96-4.252-2.4-5.623
		c-1.577-1.509-3.634-1.783-5.211-1.783c-2.537,0-4.526,0.686-6.24,2.4c-1.234,1.234-2.263,3.017-2.743,5.006H160.589z"/>
	<path d="M212.632,339.402h4.938l-3.498,28.458h-4.937l0.48-3.978c-0.892,1.234-2.126,2.537-3.566,3.36
		c-2.057,1.166-4.183,1.44-5.897,1.44c-3.428,0-6.583-0.687-9.257-3.498c-2.125-2.263-3.703-5.485-3.703-10.148
		c0-5.829,2.263-10.08,4.937-12.617s5.966-3.703,10.217-3.703c1.92,0,3.978,0.274,6.035,1.371c1.714,0.892,2.88,1.989,3.771,3.36
		L212.632,339.402z M195.9,345.78c-2.125,1.988-3.634,5.417-3.634,8.914c0,2.812,1.029,5.691,2.949,7.475
		c1.714,1.646,3.771,2.126,5.76,2.126c3.085,0,5.417-1.029,7.063-2.812c2.057-2.126,3.223-5.761,3.223-9.258
		c0-3.84-1.714-5.966-2.674-6.857c-1.166-1.097-3.017-2.263-5.829-2.263C199.604,343.105,197.341,344.408,195.9,345.78z"/>
	<path d="M226.894,339.402h4.938l-0.412,3.292c0.137-0.206,1.372-1.715,2.88-2.675c1.783-1.097,3.703-1.303,5.28-1.303
		c2.057,0,4.731,0.411,6.789,2.469c1.92,1.92,2.263,4.251,2.263,6.377c0,1.44-0.206,3.018-0.412,4.731l-1.92,15.566h-4.938
		l1.714-14.194c0.137-1.166,0.412-3.566,0.412-4.869c0-1.166-0.137-2.948-1.44-4.251c-0.823-0.823-2.194-1.44-3.978-1.44
		c-2.194,0-3.977,0.823-5.074,1.988c-1.92,1.989-2.469,5.349-2.812,7.887l-1.852,14.88h-4.937L226.894,339.402z"/>
	<path d="M263.579,343.929l-2.949,23.932h-4.937l2.948-23.932h-3.017l0.549-4.526h3.017l1.234-10.286h4.937l-1.234,10.286h4.938
		l-0.549,4.526H263.579z"/>
	<path d="M278.664,339.402l-3.498,28.458h-4.937l3.497-28.458H278.664z M274.961,326.442c0.548-0.686,1.577-1.303,2.949-1.303
		c0.96,0,1.646,0.274,2.194,0.822c0.617,0.617,0.891,1.372,0.891,2.264c0,1.234-0.48,2.125-1.097,2.742
		c-0.891,0.96-1.988,1.166-2.743,1.166c-0.892,0-1.646-0.274-2.332-0.96c-0.548-0.549-0.823-1.303-0.823-2.126
		C274.001,328.02,274.412,327.06,274.961,326.442z"/>
	<path d="M285.382,350.717h15.086l-0.617,5.075h-15.086L285.382,350.717z"/>
	<path d="M314.456,343.929l-2.949,23.932h-4.937l2.948-23.932h-2.743l0.548-4.526h2.743l1.509-12.411
		c0.274-2.4,0.686-5.349,2.88-7.543c1.852-1.852,4.114-2.332,6.24-2.332c1.371,0,2.743,0.206,3.977,0.617l-0.617,4.8
		c-0.96-0.343-2.125-0.617-3.017-0.617c-1.646,0-2.606,0.687-3.017,1.098c-0.754,0.754-1.303,2.058-1.577,4.525l-1.44,11.863h6.995
		l-0.548,4.526H314.456z"/>
	<path d="M326.387,339.402h4.938l-0.412,3.086c0.548-0.892,1.44-1.92,2.88-2.743c1.372-0.754,2.606-1.028,4.115-1.028
		c1.714,0,3.017,0.411,4.183,1.166l-2.88,4.457c-0.549-0.411-1.44-0.96-2.949-0.96c-1.372,0-2.674,0.411-3.771,1.509
		c-1.989,1.92-2.469,5.143-2.812,7.954l-1.852,15.018h-4.937L326.387,339.402z"/>
	<path d="M368.626,339.402h4.938l-3.498,28.458h-4.937l0.48-3.978c-0.892,1.234-2.126,2.537-3.566,3.36
		c-2.057,1.166-4.183,1.44-5.897,1.44c-3.428,0-6.583-0.687-9.257-3.498c-2.125-2.263-3.703-5.485-3.703-10.148
		c0-5.829,2.263-10.08,4.937-12.617s5.966-3.703,10.217-3.703c1.92,0,3.978,0.274,6.035,1.371c1.714,0.892,2.88,1.989,3.771,3.36
		L368.626,339.402z M351.894,345.78c-2.125,1.988-3.634,5.417-3.634,8.914c0,2.812,1.029,5.691,2.949,7.475
		c1.714,1.646,3.771,2.126,5.76,2.126c3.085,0,5.417-1.029,7.063-2.812c2.057-2.126,3.223-5.761,3.223-9.258
		c0-3.84-1.714-5.966-2.674-6.857c-1.166-1.097-3.017-2.263-5.829-2.263C355.597,343.105,353.334,344.408,351.894,345.78z"/>
	<path d="M382.888,339.402h4.938l-0.343,3.018c0.686-1.028,1.509-1.92,2.743-2.605c1.508-0.823,2.812-1.098,4.389-1.098
		c1.646,0,3.429,0.343,4.731,1.166c1.235,0.754,2.332,2.194,2.88,3.429c0.754-1.372,1.852-2.469,3.018-3.224
		c1.646-1.028,3.497-1.371,5.349-1.371c2.331,0,4.731,0.549,6.651,2.4c1.783,1.714,2.263,3.771,2.263,5.828
		c0,1.509-0.274,3.224-0.549,5.691l-1.852,15.224h-4.937l1.92-15.224c0.205-1.577,0.411-2.948,0.411-4.251
		c0-0.96-0.137-2.675-1.371-3.909c-0.549-0.548-1.646-1.371-3.566-1.371c-1.852,0-3.291,0.754-4.251,1.646
		c-1.783,1.715-2.332,4.252-2.675,7.269l-1.92,15.841h-4.938l2.057-16.869c0.274-1.988,0.617-4.731-1.166-6.515
		c-0.686-0.754-1.852-1.371-3.634-1.371c-1.577,0-2.949,0.549-4.046,1.646c-1.989,1.989-2.469,5.144-2.743,7.612l-1.92,15.497
		h-4.937L382.888,339.402z"/>
	<path d="M452.898,360.592c-1.303,2.194-3.36,4.594-5.28,5.897c-2.812,1.852-5.828,2.194-8.229,2.194
		c-3.36,0-6.583-0.617-9.395-3.566c-1.715-1.782-3.771-4.937-3.771-10.217c0-4.869,1.852-9.189,4.868-12.206
		c2.949-2.949,6.172-3.978,9.943-3.978c4.8,0,7.611,1.714,9.258,3.36c2.057,2.126,3.977,6.034,3.223,12.549h-22.149
		c-0.068,4.046,1.303,6.309,2.537,7.543c1.646,1.646,3.566,2.126,5.623,2.126c1.646,0,3.635-0.274,5.486-1.577
		c1.439-1.029,2.88-2.881,3.703-4.389L452.898,360.592z M448.784,350.512c-0.068-2.058-0.96-4.252-2.4-5.623
		c-1.577-1.509-3.634-1.783-5.211-1.783c-2.538,0-4.526,0.686-6.24,2.4c-1.234,1.234-2.264,3.017-2.743,5.006H448.784z"/>
	<path d="M464.143,339.402l6.034,19.338l11.589-21.532l6.171,21.532l10.903-19.338h5.623l-17.897,30.446l-6.103-21.257
		l-11.452,21.257l-10.217-30.446H464.143z"/>
	<path d="M509.74,364.774c-1.988-2.126-3.634-5.349-3.634-9.943c0-4.114,1.371-8.365,5.143-11.862
		c3.154-2.881,6.789-4.252,11.383-4.252c4.663,0,8.023,1.509,10.424,3.909c2.88,2.88,3.497,6.377,3.497,9.325
		c0,6.172-2.537,10.149-4.801,12.344c-3.634,3.565-8.022,4.389-11.862,4.389C515.844,368.684,512.483,367.654,509.74,364.774z
		 M514.814,346.26c-2.399,2.332-3.634,5.486-3.634,8.915c0,3.223,1.371,5.279,2.469,6.445c1.028,1.098,3.086,2.675,6.583,2.675
		c3.565,0,6.103-1.509,7.748-3.292c2.126-2.263,3.429-5.691,3.429-8.983c0-2.88-1.097-5.005-2.331-6.309
		c-1.44-1.508-3.703-2.605-6.515-2.605C520.644,343.105,517.558,343.586,514.814,346.26z"/>
	<path d="M545.877,339.402h4.938l-0.412,3.086c0.549-0.892,1.44-1.92,2.881-2.743c1.371-0.754,2.605-1.028,4.114-1.028
		c1.714,0,3.017,0.411,4.183,1.166l-2.88,4.457c-0.549-0.411-1.44-0.96-2.948-0.96c-1.372,0-2.675,0.411-3.771,1.509
		c-1.989,1.92-2.469,5.143-2.812,7.954l-1.852,15.018h-4.938L545.877,339.402z"/>
	<path d="M573.784,317.871l-3.977,32.092l11.726-10.561h6.446l-13.853,12.206l12.412,16.252h-6.309l-9.806-12.96l-1.372,1.234
		l-1.439,11.726h-4.938l6.172-49.989H573.784z"/>
</g>
<g enable-background="new    ">
	<path d="M112.933,120.709c-4.046,2.058-7.337,2.469-10.081,2.469c-8.434,0-14.126-2.88-17.966-6.651
		c-4.114-3.978-7.132-10.012-7.132-17.349c0-7.2,3.018-13.235,7.132-17.212c4.046-3.909,9.943-6.583,17.075-6.583
		c3.017,0,6.514,0.617,10.972,2.537v12.206c-2.332-2.469-5.829-4.869-10.697-4.869c-3.84,0-6.926,1.234-9.326,3.566
		c-2.537,2.469-4.32,6.171-4.32,10.56c0,4.731,1.92,8.092,3.977,10.081c0.96,0.96,4.251,3.84,9.875,3.84
		c2.743,0,6.446-0.755,10.492-4.731V120.709z"/>
	<path d="M150.029,118.241c-2.743,2.742-7.406,4.937-13.372,4.937c-5.966,0-10.628-2.194-13.372-4.937
		c-3.085-3.086-4.594-7.475-4.594-11.384c0-3.908,1.509-8.297,4.594-11.383c2.743-2.743,7.406-4.938,13.372-4.938
		c5.966,0,10.629,2.194,13.372,4.938c3.086,3.086,4.594,7.475,4.594,11.383C154.624,110.767,153.115,115.155,150.029,118.241z
		 M131.103,101.098c-1.44,1.439-2.263,3.291-2.263,5.76c0,2.812,1.097,4.595,2.263,5.761c1.234,1.234,3.017,2.194,5.623,2.194
		c2.194,0,4.046-0.755,5.486-2.194c1.44-1.44,2.263-3.292,2.263-5.761s-0.823-4.32-2.263-5.76c-1.44-1.44-3.292-2.194-5.555-2.194
		C134.395,98.903,132.543,99.657,131.103,101.098z"/>
	<path d="M160.793,91.565h9.875v3.566c2.537-3.84,6.24-4.32,8.571-4.32c1.303,0,3.703,0.137,5.76,1.371
		c1.577,0.892,2.88,2.4,3.703,4.252c0.754-1.234,1.92-2.675,3.909-3.908c2.125-1.304,4.114-1.715,6.514-1.715
		c3.703,0,6.72,1.098,8.572,2.88c2.949,2.812,3.154,6.926,3.154,9.12v19.338h-9.875v-15.497c0-1.577,0-4.32-1.303-5.966
		c-0.823-1.029-2.126-1.646-3.566-1.646c-1.646,0-3.017,0.755-3.84,1.852c-1.303,1.646-1.508,4.046-1.508,6.034v15.224h-9.875
		V106.24c0-2.057-0.069-4.457-1.577-5.966c-1.029-1.028-2.263-1.234-3.292-1.234c-1.303,0-2.469,0.343-3.429,1.234
		c-1.852,1.783-1.92,5.212-1.92,6.24v15.635h-9.875V91.565z"/>
	<path d="M224.22,72.776c3.223,0,5.76,2.538,5.76,5.761s-2.537,5.76-5.76,5.76c-3.223,0-5.76-2.537-5.76-5.76
		S220.997,72.776,224.22,72.776z M229.157,91.565v30.584h-9.875V91.565H229.157z"/>
	<path d="M237.521,91.565h9.874V95.2c3.018-3.84,6.583-4.457,9.463-4.457c2.674,0,6.171,0.479,8.777,3.086
		c2.88,2.88,3.086,6.514,3.086,8.982v19.338h-9.875v-15.703c0-1.988-0.069-4.526-1.646-6.104c-0.754-0.754-1.989-1.371-3.771-1.371
		c-2.057,0-3.36,0.823-4.114,1.646c-1.646,1.646-1.92,3.841-1.92,5.829v15.703h-9.874V91.565z"/>
	<path d="M299.646,91.565h9.875v28.732c0,4.32-0.206,9.188-3.771,13.029c-3.771,4.046-9.532,4.525-12.892,4.525
		c-4.046,0-8.915-0.617-12.755-3.908c-1.92-1.646-3.909-4.252-4.594-8.092h10.766c0.411,1.577,1.371,2.469,2.194,3.017
		c1.166,0.755,2.811,1.029,4.251,1.029c2.812,0,4.251-1.029,4.937-1.646c1.92-1.851,1.989-5.074,1.989-6.377v-3.497
		c-1.166,1.92-3.498,4.595-9.12,4.595c-4.732,0-8.366-1.509-11.178-4.32c-2.468-2.537-4.457-6.24-4.457-11.521
		c0-5.212,1.92-9.531,4.526-12.206c1.852-1.92,5.417-4.389,11.109-4.389c5.554,0,8.023,2.949,9.12,4.595V91.565z M287.371,101.098
		c-1.508,1.439-2.331,3.84-2.331,5.691c0,1.988,0.754,4.046,2.125,5.485c1.372,1.44,3.223,2.195,5.555,2.195
		c2.605,0,4.32-1.029,5.349-1.989c1.508-1.439,2.4-3.565,2.4-5.828c0-2.4-1.028-4.389-2.332-5.623
		c-1.44-1.304-3.566-1.921-5.349-1.921C290.594,99.108,288.605,99.932,287.371,101.098z"/>
	<path d="M351.895,99.383c-1.509-0.891-3.497-1.714-5.417-1.714c-1.028,0-2.194,0.274-2.812,0.892
		c-0.343,0.343-0.617,0.892-0.617,1.371c0,0.686,0.48,1.098,0.96,1.372c0.686,0.411,1.714,0.616,2.948,1.028l2.606,0.822
		c1.714,0.549,3.497,1.234,5.074,2.675c1.783,1.646,2.4,3.497,2.4,5.829c0,4.045-1.783,6.651-3.154,8.022
		c-3.018,3.018-6.72,3.497-9.943,3.497c-4.114,0-8.572-0.892-12.549-4.389l4.183-6.651c0.96,0.823,2.332,1.783,3.36,2.263
		c1.372,0.686,2.812,0.96,4.115,0.96c0.617,0,2.194,0,3.085-0.686c0.617-0.479,1.029-1.234,1.029-1.988
		c0-0.549-0.206-1.234-1.097-1.783c-0.686-0.411-1.577-0.686-3.017-1.097l-2.469-0.755c-1.783-0.549-3.634-1.509-4.938-2.812
		c-1.44-1.509-2.194-3.223-2.194-5.554c0-2.949,1.166-5.418,2.949-7.063c2.743-2.537,6.446-3.086,9.257-3.086
		c4.526,0,7.68,1.166,10.149,2.605L351.895,99.383z"/>
	<path d="M392.762,118.241c-2.743,2.742-7.406,4.937-13.372,4.937c-5.966,0-10.629-2.194-13.372-4.937
		c-3.086-3.086-4.594-7.475-4.594-11.384c0-3.908,1.508-8.297,4.594-11.383c2.743-2.743,7.406-4.938,13.372-4.938
		c5.966,0,10.628,2.194,13.372,4.938c3.085,3.086,4.594,7.475,4.594,11.383C397.356,110.767,395.848,115.155,392.762,118.241z
		 M373.836,101.098c-1.44,1.439-2.263,3.291-2.263,5.76c0,2.812,1.097,4.595,2.263,5.761c1.234,1.234,3.017,2.194,5.623,2.194
		c2.194,0,4.046-0.755,5.486-2.194c1.44-1.44,2.263-3.292,2.263-5.761s-0.823-4.32-2.263-5.76c-1.44-1.44-3.292-2.194-5.554-2.194
		C377.127,98.903,375.276,99.657,373.836,101.098z"/>
	<path d="M433.355,118.241c-2.743,2.742-7.405,4.937-13.372,4.937c-5.966,0-10.628-2.194-13.371-4.937
		c-3.086-3.086-4.595-7.475-4.595-11.384c0-3.908,1.509-8.297,4.595-11.383c2.743-2.743,7.405-4.938,13.371-4.938
		c5.967,0,10.629,2.194,13.372,4.938c3.086,3.086,4.595,7.475,4.595,11.383C437.95,110.767,436.441,115.155,433.355,118.241z
		 M414.43,101.098c-1.44,1.439-2.263,3.291-2.263,5.76c0,2.812,1.097,4.595,2.263,5.761c1.234,1.234,3.017,2.194,5.623,2.194
		c2.194,0,4.046-0.755,5.485-2.194c1.44-1.44,2.263-3.292,2.263-5.761s-0.822-4.32-2.263-5.76c-1.439-1.44-3.291-2.194-5.555-2.194
		C417.721,98.903,415.869,99.657,414.43,101.098z"/>
	<path d="M444.119,91.565h9.875V95.2c3.018-3.84,6.583-4.457,9.463-4.457c2.675,0,6.172,0.479,8.777,3.086
		c2.88,2.88,3.086,6.514,3.086,8.982v19.338h-9.874v-15.703c0-1.988-0.069-4.526-1.646-6.104c-0.754-0.754-1.988-1.371-3.771-1.371
		c-2.057,0-3.359,0.823-4.114,1.646c-1.646,1.646-1.92,3.841-1.92,5.829v15.703h-9.875V91.565z"/>
	<path d="M488.689,90.537c3.498,0,6.24,2.743,6.24,6.24s-2.742,6.24-6.24,6.24c-3.497,0-6.24-2.743-6.24-6.24
		S485.192,90.537,488.689,90.537z M488.689,110.697c3.498,0,6.24,2.743,6.24,6.24c0,3.498-2.742,6.24-6.24,6.24
		c-3.497,0-6.24-2.742-6.24-6.24C482.449,113.44,485.192,110.697,488.689,110.697z"/>
</g>
</svg>
