<?xml version="1.0" encoding="utf-8"?>
<!-- Generator: Adobe Illustrator 17.0.0, SVG Export Plug-In . SVG Version: 6.00 Build 0)  -->
<!DOCTYPE svg PUBLIC "-//W3C//DTD SVG 1.1//EN" "http://www.w3.org/Graphics/SVG/1.1/DTD/svg11.dtd">
<svg version="1.1" id="Layer_1" xmlns="http://www.w3.org/2000/svg" xmlns:xlink="http://www.w3.org/1999/xlink" x="0px" y="0px"
	 width="800px" height="450px" viewBox="0 0 800 450" enable-background="new 0 0 800 450" xml:space="preserve">
<rect fill="#EB672E" width="800" height="450"/>
<g>
	<path fill="#FFFFFF" d="M40,148.034v-17.587c0-1.734,0.808-2.84,2.422-3.32l16.69-4.397c1.615-0.478,2.422,0.121,2.422,1.795
		v22.612c0,1.197,0.434,2.229,1.301,3.095c0.867,0.868,1.898,1.301,3.096,1.301h1.525c1.196,0,2.228-0.418,3.096-1.256
		c0.866-0.837,1.301-1.884,1.301-3.14V122.91c-0.12-1.615-0.374-3.036-0.763-4.262c-0.39-1.226-1.122-2.317-2.198-3.275
		L45.204,97.157c-1.855-1.734-3.186-3.455-3.993-5.159C40.404,90.293,40,88.036,40,85.223V63.15c0-3.17,0.614-6.161,1.842-8.973
		c1.228-2.811,2.891-5.263,4.988-7.357c2.097-2.093,4.554-3.753,7.37-4.98C57.016,40.614,60.012,40,63.189,40h7.01
		c3.176,0,6.187,0.614,9.033,1.839c2.846,1.227,5.303,2.887,7.371,4.98c2.066,2.094,3.715,4.546,4.943,7.357
		c1.229,2.812,1.842,5.803,1.842,8.973v6.999c0,1.735-0.781,2.842-2.343,3.32l-16.85,4.397c-1.622,0.479-2.403-0.149-2.343-1.885
		V64.047c0-1.196-0.435-2.228-1.301-3.096c-0.868-0.867-1.9-1.301-3.096-1.301h-1.525c-1.197,0-2.229,0.435-3.096,1.301
		c-0.868,0.868-1.301,1.899-1.301,3.096v16.779c0.119,1.376,0.359,2.543,0.718,3.5c0.359,0.958,1.046,1.915,2.063,2.871
		l24.116,18.036c1.982,1.736,3.243,3.485,3.784,5.249c0.541,1.765,0.931,3.755,1.172,5.967v31.584c0,3.171-0.614,6.177-1.842,9.018
		c-1.228,2.842-2.877,5.294-4.943,7.357c-2.068,2.064-4.51,3.71-7.326,4.936c-2.816,1.225-5.842,1.839-9.078,1.839h-7.01
		c-3.177,0-6.173-0.614-8.989-1.839c-2.816-1.226-5.273-2.872-7.37-4.936c-2.098-2.063-3.76-4.5-4.988-7.312
		C40.614,154.285,40,151.264,40,148.034z"/>
	<path fill="#FFFFFF" d="M102.631,167.326l13.705-123.468c0.236-1.734,1.185-2.602,2.848-2.602h24.274
		c1.734,0,2.692,0.868,2.872,2.602l13.818,123.468c0,0.24,0.029,0.449,0.089,0.628c0,1.316-0.749,1.974-2.243,1.974h-16.779
		c-1.615,0-2.543-0.866-2.782-2.602l-1.436-19.83h-11.396l-1.436,19.83c-0.238,1.736-1.158,2.602-2.759,2.602h-16.551
		c-1.483,0-2.225-0.658-2.225-1.974C102.631,167.774,102.631,167.565,102.631,167.326z M127.217,126.947h8.524l-3.499-49.8h-1.525
		L127.217,126.947z"/>
	<path fill="#FFFFFF" d="M173.337,167.326V43.858c0-1.734,0.867-2.602,2.602-2.602h16.331c1.734,0,2.602,0.868,2.602,2.602v104.535
		h22.791c1.734,0,2.602,0.868,2.602,2.602v16.331c0,1.736-0.868,2.602-2.602,2.602h-24.855h-0.359h-0.179h-16.331
		C174.204,169.928,173.337,169.062,173.337,167.326z"/>
	<path fill="#FFFFFF" d="M226.816,43.858c-0.061-0.238-0.09-0.448-0.09-0.628c0-1.315,0.75-1.974,2.251-1.974h19.902
		c1.621,0,2.521,0.868,2.702,2.602l7.627,77.885h0.718l7.537-77.885c0.239-1.734,1.167-2.602,2.782-2.602h19.83
		c1.495,0,2.243,0.659,2.243,1.974c0,0.18,0,0.39,0,0.628l-21.714,123.468c-0.24,1.736-1.227,2.602-2.961,2.602h-16.151
		c-1.736,0-2.723-0.866-2.961-2.602L226.816,43.858z"/>
	<path fill="#FFFFFF" d="M298.061,167.326l13.705-123.468c0.236-1.734,1.185-2.602,2.848-2.602h24.274
		c1.734,0,2.692,0.868,2.872,2.602l13.818,123.468c0,0.24,0.029,0.449,0.089,0.628c0,1.316-0.749,1.974-2.243,1.974h-16.779
		c-1.615,0-2.543-0.866-2.782-2.602l-1.436-19.83h-11.396l-1.436,19.83c-0.238,1.736-1.158,2.602-2.759,2.602h-16.551
		c-1.483,0-2.225-0.658-2.225-1.974C298.061,167.774,298.061,167.565,298.061,167.326z M322.647,126.947h8.524l-3.499-49.8h-1.525
		L322.647,126.947z"/>
	<path fill="#FFFFFF" d="M364.191,60.189V43.858c0-1.734,0.867-2.602,2.602-2.602h47.377c1.734,0,2.603,0.868,2.603,2.602v16.331
		c0,1.735-0.868,2.602-2.603,2.602H401.16v104.535c0,1.736-0.868,2.602-2.602,2.602h-16.331c-0.599,0-1.182-0.238-1.75-0.718
		c-0.569-0.478-0.852-1.106-0.852-1.884V62.791h-12.832C365.058,62.791,364.191,61.924,364.191,60.189z"/>
	<path fill="#FFFFFF" d="M425.925,60.189V43.858c0-1.734,0.867-2.602,2.602-2.602h47.377c1.734,0,2.603,0.868,2.603,2.602v16.331
		c0,1.735-0.868,2.602-2.603,2.602h-13.011v104.535c0,1.736-0.868,2.602-2.603,2.602h-16.33c-0.599,0-1.183-0.238-1.75-0.718
		c-0.569-0.478-0.853-1.106-0.853-1.884V62.791h-12.831C426.792,62.791,425.925,61.924,425.925,60.189z"/>
	<path fill="#FFFFFF" d="M489.543,148.034V63.15c0-3.17,0.613-6.161,1.84-8.973c1.226-2.811,2.871-5.263,4.935-7.357
		c2.064-2.093,4.501-3.753,7.313-4.98c2.811-1.226,5.832-1.839,9.062-1.839h6.999c3.17,0,6.16,0.614,8.973,1.839
		c2.812,1.227,5.264,2.887,7.358,4.98c2.093,2.094,3.753,4.546,4.979,7.357c1.226,2.812,1.84,5.803,1.84,8.973v84.884
		c0,3.171-0.614,6.177-1.84,9.018c-1.227,2.842-2.887,5.294-4.979,7.357c-2.095,2.064-4.547,3.71-7.358,4.936
		c-2.812,1.225-5.803,1.839-8.973,1.839h-6.999c-3.171,0-6.177-0.614-9.018-1.839c-2.842-1.226-5.294-2.872-7.358-4.936
		c-2.063-2.063-3.709-4.5-4.935-7.312C490.156,154.285,489.543,151.264,489.543,148.034z M511.078,147.137
		c0,1.197,0.429,2.229,1.29,3.095c0.859,0.868,1.883,1.301,3.069,1.301h1.511c1.187,0,2.208-0.418,3.069-1.256
		c0.859-0.837,1.29-1.884,1.29-3.14V64.047c0-1.196-0.431-2.228-1.29-3.096c-0.861-0.867-1.883-1.301-3.069-1.301h-1.511
		c-1.187,0-2.21,0.435-3.069,1.301c-0.861,0.868-1.29,1.899-1.29,3.096V147.137z"/>
	<path fill="#FFFFFF" d="M557.468,167.326V43.858c0-1.734,0.866-2.602,2.603-2.602h27.547c3.17,0,6.16,0.614,8.973,1.841
		c2.812,1.227,5.264,2.887,7.357,4.981s3.754,4.547,4.98,7.359c1.226,2.812,1.84,5.804,1.84,8.976v29.978
		c0,4.548-1.174,8.631-3.519,12.251s-5.411,6.418-9.199,8.393l16.329,52.312c0.059,0.297,0.09,0.593,0.09,0.89
		c0,1.127-0.627,1.691-1.879,1.691h-16.725c-0.717,0-1.418-0.238-2.104-0.718s-1.146-1.107-1.385-1.886l-13.374-44.953v47.557
		l-0.18-1.794c-0.239,1.197-1.047,1.794-2.423,1.794h-16.33C558.334,169.928,557.468,169.062,557.468,167.326z M579.003,97.875
		h5.832c1.196,0,2.229-0.417,3.096-1.256c0.867-0.837,1.302-1.885,1.302-3.141V65.393c0-1.196-0.42-2.228-1.257-3.096
		c-0.838-0.866-1.884-1.301-3.141-1.301h-5.832V97.875z"/>
	<path fill="#FFFFFF" d="M626.56,167.326V43.858c0-1.734,0.866-2.602,2.603-2.602h39.84c1.734,0,2.602,0.868,2.602,2.602v16.331
		c0,1.735-0.867,2.602-2.602,2.602h-20.907v26.47h18.215c1.734,0,2.571,0.868,2.513,2.602v16.331c0,1.736-0.839,2.603-2.513,2.603
		h-18.215v37.596h20.907c1.734,0,2.602,0.868,2.602,2.602v16.331c0,1.736-0.867,2.602-2.602,2.602h-39.84
		C627.426,169.928,626.56,169.062,626.56,167.326z"/>
</g>
<g opacity="0.1">
	<rect x="365" y="195" width="126" height="163"/>
	<rect x="365" y="368" width="126" height="163"/>
	<rect x="637" y="195" width="126" height="190"/>
	<rect x="637" y="396" width="126" height="190"/>
	<rect x="501" y="318" width="126" height="163"/>
	<rect x="501" y="195" width="126" height="113"/>
</g>
<g>
	<g>
		<path fill="#FFFFFF" d="M102.524,283.768v-33.485h13.397v2.573h-10.31v28.339h10.31v2.573H102.524z"/>
		<path fill="#FFFFFF" d="M132.009,273.423c-0.942,1.55-2.075,2.718-3.399,3.504s-2.541,1.179-3.648,1.179
			c-1.552,0-2.945-0.669-4.181-2.009c-1.236-1.339-1.854-3.37-1.854-6.093c0-2.147,0.41-4.064,1.23-5.752
			c0.82-1.688,1.917-3.021,3.292-4.001c1.374-0.979,3.075-1.469,5.103-1.469c0.587,0,1.474,0.061,2.66,0.183
			c0.177,0.022,0.443,0.05,0.798,0.083v-8.251h3.088v26.795h-3.088V273.423z M132.009,269.75v-7.962
			c-1.098-0.288-2.118-0.432-3.06-0.432c-1.907,0-3.495,0.737-4.765,2.211c-1.27,1.474-1.904,3.479-1.904,6.017
			c0,1.84,0.346,3.228,1.04,4.164c0.693,0.937,1.482,1.404,2.37,1.404c0.964,0,2.029-0.487,3.193-1.463
			C130.046,272.713,131.088,271.4,132.009,269.75z"/>
		<path fill="#FFFFFF" d="M152.2,273.443c-0.941,1.543-2.073,2.707-3.396,3.489c-1.323,0.782-2.538,1.174-3.645,1.174
			c-1.55,0-2.942-0.669-4.177-2.009c-1.234-1.339-1.852-3.37-1.852-6.093c0-2.147,0.41-4.064,1.23-5.752
			c0.82-1.688,1.917-3.021,3.291-4.001c1.374-0.979,3.075-1.469,5.103-1.469c0.587,0,1.472,0.061,2.653,0.183
			c0.177,0.022,0.442,0.05,0.795,0.083h3.098v13.095c0,2.237,0.238,4.053,0.714,5.449h-3.221
			C152.545,276.578,152.347,275.195,152.2,273.443z M152.213,269.75v-7.962c-1.098-0.288-2.118-0.432-3.06-0.432
			c-1.907,0-3.495,0.737-4.765,2.211c-1.27,1.474-1.904,3.479-1.904,6.017c0,1.84,0.346,3.228,1.04,4.164
			c0.693,0.937,1.482,1.404,2.37,1.404c0.964,0,2.029-0.487,3.193-1.463C150.25,272.713,151.292,271.4,152.213,269.75z"/>
		<path fill="#FFFFFF" d="M175.92,276.845c-1.45,0.609-2.501,0.971-3.154,1.087c-0.653,0.116-1.284,0.174-1.893,0.174
			c-1.295,0-2.479-0.249-3.553-0.747c-1.074-0.498-1.884-1.234-2.432-2.208c-0.548-0.974-0.822-2.479-0.822-4.516v-7.471h-4.632
			v-2.573h4.632v-7.471h3.088v7.471h8.251v2.573h-8.251v7.421c0,1.494,0.177,2.548,0.531,3.163c0.354,0.614,0.827,1.065,1.419,1.353
			c0.592,0.288,1.292,0.432,2.1,0.432c1.494,0,3.065-0.47,4.715-1.411V276.845z"/>
		<path fill="#FFFFFF" d="M193.007,273.443c-0.941,1.543-2.073,2.707-3.396,3.489c-1.323,0.782-2.538,1.174-3.645,1.174
			c-1.55,0-2.942-0.669-4.177-2.009c-1.234-1.339-1.852-3.37-1.852-6.093c0-2.147,0.41-4.064,1.23-5.752
			c0.82-1.688,1.917-3.021,3.291-4.001c1.374-0.979,3.075-1.469,5.103-1.469c0.587,0,1.472,0.061,2.653,0.183
			c0.177,0.022,0.442,0.05,0.795,0.083h3.098v13.095c0,2.237,0.238,4.053,0.714,5.449h-3.221
			C193.352,276.578,193.154,275.195,193.007,273.443z M193.02,269.75v-7.962c-1.098-0.288-2.118-0.432-3.06-0.432
			c-1.907,0-3.495,0.737-4.765,2.211c-1.27,1.474-1.904,3.479-1.904,6.017c0,1.84,0.346,3.228,1.04,4.164
			c0.693,0.937,1.482,1.404,2.37,1.404c0.964,0,2.029-0.487,3.193-1.463C191.057,272.713,192.099,271.4,193.02,269.75z"/>
		<path fill="#FFFFFF" d="M202.416,268.444v-2.573h12.883v2.573H202.416z"/>
		<path fill="#FFFFFF" d="M237.229,277.061c-2.07,0.697-4.04,1.046-5.91,1.046c-1.859,0-3.511-0.429-4.956-1.287
			s-2.571-2.02-3.378-3.486c-0.808-1.466-1.212-3.135-1.212-5.005c0-2.811,0.916-5.146,2.748-7.006
			c1.832-1.859,4.042-2.789,6.632-2.789c1.915,0,3.94,0.36,6.076,1.079v2.972c-2.158-0.985-4.09-1.478-5.794-1.478
			c-1.129,0-2.191,0.28-3.188,0.838c-0.996,0.559-1.766,1.431-2.308,2.615c-0.542,1.185-0.813,2.402-0.813,3.652
			c0,1.671,0.523,3.265,1.569,4.781c1.046,1.517,2.687,2.274,4.922,2.274c0.675,0,1.339-0.047,1.992-0.141
			c0.653-0.094,1.859-0.44,3.619-1.038V277.061z"/>
		<path fill="#FFFFFF" d="M249.656,278.106c-2.654,0-4.777-0.927-6.369-2.781c-1.592-1.854-2.388-4.192-2.388-7.014
			s0.796-5.157,2.388-7.006c1.592-1.848,3.715-2.772,6.369-2.772c2.643,0,4.76,0.924,6.352,2.772
			c1.592,1.849,2.389,4.184,2.389,7.006s-0.796,5.161-2.389,7.014C254.416,277.18,252.298,278.106,249.656,278.106z
			 M249.656,275.533c1.646,0,2.956-0.642,3.928-1.926c0.973-1.284,1.459-3.049,1.459-5.296c0-2.235-0.486-3.995-1.459-5.279
			c-0.972-1.284-2.282-1.926-3.928-1.926c-1.658,0-2.973,0.642-3.945,1.926c-0.972,1.284-1.458,3.044-1.458,5.279
			c0,2.247,0.486,4.012,1.458,5.296C246.683,274.892,247.998,275.533,249.656,275.533z"/>
		<path fill="#FFFFFF" d="M267.411,277.592V253.37h-5.545v-2.573h8.633v24.222h5.794v2.573H267.411z"/>
		<path fill="#FFFFFF" d="M298.091,259.048v18.544h-3.088v-4.067c-0.996,1.527-2.103,2.673-3.32,3.437
			c-1.218,0.764-2.435,1.146-3.652,1.146c-1.085,0-2.078-0.291-2.98-0.872c-0.902-0.581-1.53-1.345-1.884-2.291
			c-0.354-0.946-0.531-2.792-0.531-5.537v-10.359h3.088v10.741c0,1.782,0.085,2.958,0.257,3.528c0.171,0.57,0.487,1.038,0.946,1.403
			c0.459,0.365,0.955,0.548,1.486,0.548c1.084,0,2.25-0.512,3.495-1.536c1.245-1.023,2.277-2.316,3.096-3.876v-10.808H298.091z"/>
		<path fill="#FFFFFF" d="M301.843,277.592v-18.544h2.706v4.25c0.852-1.804,1.646-3.049,2.382-3.735
			c0.736-0.686,1.48-1.029,2.233-1.029c0.896,0,1.619,0.352,2.167,1.054c0.548,0.703,0.822,1.702,0.822,2.997v0.996
			c0.365-1.129,0.805-2.044,1.32-2.748c0.515-0.703,1.048-1.262,1.602-1.677c0.553-0.415,1.189-0.623,1.909-0.623
			c0.797,0,1.478,0.338,2.042,1.013c0.564,0.675,0.847,2.02,0.847,4.034v14.012h-2.706v-12.667c0-1.04-0.033-1.751-0.1-2.133
			s-0.199-0.672-0.398-0.872s-0.415-0.299-0.647-0.299c-0.576,0-1.193,0.44-1.851,1.32c-0.659,0.88-1.331,2.338-2.017,4.375v10.276
			h-2.573v-12.65c0-1.638-0.161-2.601-0.483-2.889c-0.322-0.288-0.611-0.432-0.866-0.432c-0.566,0-1.175,0.493-1.824,1.478
			c-0.649,0.985-1.269,2.247-1.857,3.785v10.708H301.843z"/>
		<path fill="#FFFFFF" d="M323.641,277.592v-18.544h3.088v4.051c0.885-1.428,1.953-2.545,3.204-3.354
			c1.25-0.808,2.501-1.212,3.752-1.212c1.096,0,2.092,0.291,2.988,0.872s1.524,1.342,1.884,2.283c0.359,0.941,0.54,2.789,0.54,5.545
			v10.359h-3.088v-10.741c0-1.782-0.086-2.958-0.257-3.528c-0.172-0.57-0.487-1.038-0.946-1.403
			c-0.459-0.365-0.96-0.548-1.502-0.548c-1.085,0-2.25,0.515-3.495,1.544s-2.272,2.319-3.08,3.868v10.808H323.641z"/>
		<path fill="#FFFFFF" d="M344.26,276.612v-3.271c1.239,0.808,2.551,1.375,3.935,1.702c1.383,0.327,2.557,0.49,3.52,0.49
			c1.561,0,2.684-0.251,3.37-0.755c0.686-0.503,1.029-1.131,1.029-1.884c0-0.498-0.161-0.924-0.481-1.278
			c-0.321-0.354-1.118-0.791-2.391-1.312l-1.062-0.432l-2.142-0.847c-2.302-0.896-3.752-1.727-4.35-2.49
			c-0.609-0.752-0.913-1.671-0.913-2.756c0-1.527,0.59-2.783,1.77-3.769c1.18-0.985,3.095-1.478,5.744-1.478
			c1.983,0,3.861,0.288,5.635,0.863v2.806c-2.04-0.73-3.958-1.096-5.754-1.096c-1.308,0-2.331,0.23-3.068,0.689
			c-0.737,0.459-1.106,1.032-1.106,1.718c0,0.664,0.321,1.195,0.963,1.594c0.631,0.398,1.661,0.858,3.09,1.378l2.094,0.764
			c1.917,0.697,3.262,1.456,4.033,2.274c0.772,0.819,1.158,1.843,1.158,3.071c0,1.605-0.617,2.925-1.851,3.959
			c-1.234,1.035-3.207,1.552-5.918,1.552C349.196,278.106,346.761,277.608,344.26,276.612z"/>
		<path fill="#FFFFFF" d="M376.384,250.282v33.485h-13.397v-2.573h10.31v-28.339h-10.31v-2.573H376.384z"/>
		<path fill="#FFFFFF" d="M392.471,263.945c-0.742,0-1.378-0.266-1.909-0.797s-0.797-1.167-0.797-1.909
			c0-0.752,0.269-1.392,0.806-1.917c0.536-0.525,1.17-0.789,1.9-0.789s1.363,0.263,1.9,0.789c0.537,0.526,0.806,1.165,0.806,1.917
			c0,0.742-0.266,1.378-0.797,1.909S393.212,263.945,392.471,263.945z M392.471,278.372c-0.742,0-1.378-0.266-1.909-0.797
			s-0.797-1.167-0.797-1.909c0-0.752,0.269-1.392,0.806-1.917c0.536-0.525,1.17-0.789,1.9-0.789s1.363,0.263,1.9,0.789
			c0.537,0.526,0.806,1.165,0.806,1.917c0,0.742-0.266,1.378-0.797,1.909S393.212,278.372,392.471,278.372z"/>
		<path fill="#FFFFFF" d="M412.874,263.945c-0.741,0-1.378-0.266-1.909-0.797s-0.797-1.167-0.797-1.909
			c0-0.752,0.268-1.392,0.805-1.917c0.537-0.525,1.171-0.789,1.901-0.789s1.364,0.263,1.901,0.789
			c0.536,0.526,0.805,1.165,0.805,1.917c0,0.742-0.266,1.378-0.797,1.909S413.615,263.945,412.874,263.945z M412.874,278.372
			c-0.741,0-1.378-0.266-1.909-0.797s-0.797-1.167-0.797-1.909c0-0.752,0.268-1.392,0.805-1.917
			c0.537-0.525,1.171-0.789,1.901-0.789s1.364,0.263,1.901,0.789c0.536,0.526,0.805,1.165,0.805,1.917
			c0,0.742-0.266,1.378-0.797,1.909S413.615,278.372,412.874,278.372z"/>
		<path fill="#FFFFFF" d="M428.513,263.217c0.952-1.55,2.086-2.718,3.403-3.504c1.316-0.786,2.529-1.179,3.636-1.179
			c1.55,0,2.944,0.67,4.184,2.009c1.239,1.339,1.859,3.37,1.859,6.093c0,2.147-0.413,4.065-1.237,5.752
			c-0.824,1.688-1.923,3.021-3.295,4.001c-1.373,0.979-3.071,1.469-5.097,1.469c-0.575,0-1.461-0.061-2.656-0.183
			c-0.177-0.022-0.442-0.05-0.797-0.083h-3.088v-26.795h3.088V263.217z M428.513,266.89v7.962c1.118,0.288,2.147,0.432,3.088,0.432
			c1.87,0,3.444-0.734,4.724-2.202c1.277-1.468,1.917-3.477,1.917-6.025c0-1.851-0.349-3.241-1.046-4.172s-1.488-1.396-2.374-1.396
			c-0.963,0-2.022,0.488-3.179,1.463C430.485,263.926,429.442,265.239,428.513,266.89z"/>
		<path fill="#FFFFFF" d="M461.483,276.358c-2.468,1.166-4.804,1.749-7.006,1.749c-1.671,0-3.165-0.415-4.482-1.244
			c-1.317-0.829-2.372-2.015-3.163-3.558c-0.791-1.543-1.187-3.193-1.187-4.952c0-1.692,0.376-3.317,1.129-4.876
			c0.753-1.56,1.804-2.773,3.154-3.641c1.351-0.868,2.855-1.302,4.516-1.302c2.202,0,3.97,0.785,5.304,2.354
			c1.334,1.569,2.001,3.989,2.001,7.259v0.663h-12.783c0,1.287,0.269,2.463,0.806,3.528c0.536,1.065,1.242,1.864,2.116,2.396
			c0.874,0.533,1.87,0.799,2.988,0.799c1.992,0,4.194-0.666,6.607-1.997V276.358z M449.148,266.502h9.247v-0.447
			c0-1.512-0.371-2.714-1.112-3.608c-0.742-0.894-1.732-1.341-2.972-1.341c-1.251,0-2.333,0.455-3.245,1.365
			C450.152,263.382,449.514,264.726,449.148,266.502z"/>
		<path fill="#FFFFFF" d="M470.78,277.592v-14.443h-4.117v-2.573h4.117v-0.862c0-2.442,0.276-4.249,0.83-5.42
			s1.408-2.133,2.565-2.884c1.156-0.751,2.686-1.127,4.59-1.127c1.438,0,2.899,0.148,4.383,0.445v2.925
			c-1.605-0.531-3.027-0.797-4.267-0.797c-0.985,0-1.854,0.183-2.606,0.548c-0.753,0.365-1.342,0.96-1.768,1.785
			c-0.427,0.825-0.64,2.222-0.64,4.192v1.195h7.354v2.573h-7.354v14.443H470.78z"/>
		<path fill="#FFFFFF" d="M494.496,278.106c-2.654,0-4.777-0.927-6.369-2.781c-1.593-1.854-2.389-4.192-2.389-7.014
			s0.796-5.157,2.389-7.006c1.592-1.848,3.715-2.772,6.369-2.772c2.643,0,4.76,0.924,6.352,2.772
			c1.592,1.849,2.389,4.184,2.389,7.006s-0.797,5.161-2.389,7.014C499.256,277.18,497.139,278.106,494.496,278.106z
			 M494.496,275.533c1.646,0,2.955-0.642,3.928-1.926c0.973-1.284,1.459-3.049,1.459-5.296c0-2.235-0.486-3.995-1.459-5.279
			c-0.973-1.284-2.281-1.926-3.928-1.926c-1.658,0-2.973,0.642-3.945,1.926c-0.973,1.284-1.459,3.044-1.459,5.279
			c0,2.247,0.486,4.012,1.459,5.296C491.523,274.892,492.838,275.533,494.496,275.533z"/>
		<path fill="#FFFFFF" d="M508.848,277.592v-18.544h3.088v4.051c0.963-1.527,2.066-2.67,3.312-3.428
			c1.244-0.758,2.631-1.137,4.158-1.137c1.117,0,2.235,0.172,3.354,0.515v6.69h-2.972v-4.233c-0.521-0.088-0.93-0.133-1.229-0.133
			c-1.151,0-2.28,0.454-3.387,1.361c-1.106,0.908-2.187,2.269-3.237,4.084v10.774H508.848z"/>
		<path fill="#FFFFFF" d="M543.097,276.358c-2.468,1.166-4.804,1.749-7.006,1.749c-1.671,0-3.165-0.415-4.482-1.244
			c-1.317-0.829-2.372-2.015-3.163-3.558c-0.791-1.543-1.187-3.193-1.187-4.952c0-1.692,0.376-3.317,1.129-4.876
			c0.753-1.56,1.804-2.773,3.154-3.641c1.351-0.868,2.855-1.302,4.516-1.302c2.202,0,3.971,0.785,5.305,2.354
			c1.333,1.569,2,3.989,2,7.259v0.663h-12.783c0,1.287,0.269,2.463,0.806,3.528c0.536,1.065,1.242,1.864,2.116,2.396
			c0.874,0.533,1.87,0.799,2.988,0.799c1.992,0,4.194-0.666,6.607-1.997V276.358z M530.762,266.502h9.247v-0.447
			c0-1.512-0.371-2.714-1.112-3.608c-0.741-0.894-1.732-1.341-2.972-1.341c-1.251,0-2.332,0.455-3.246,1.365
			C531.766,263.382,531.127,264.726,530.762,266.502z"/>
		<path fill="#FFFFFF" d="M574.988,267.033c1.024,0.542,1.776,1.074,2.256,1.594c0.479,0.521,0.837,1.054,1.074,1.602
			s0.355,1.176,0.355,1.884c0,0.631-0.11,1.456-0.33,2.474l-0.413,1.893c-0.222,1.029-0.332,1.793-0.332,2.291
			c0,0.675,0.263,1.247,0.788,1.718c0.526,0.471,1.608,0.706,3.246,0.706h2.573v2.573h-2.604c-3.028,0-4.979-0.487-5.853-1.461
			s-1.31-2.075-1.31-3.304c0-0.653,0.083-1.356,0.249-2.108l0.299-1.328l0.282-1.444l0.199-0.88
			c0.077-0.409,0.116-0.808,0.116-1.195c0-1.029-0.345-1.909-1.035-2.64c-0.689-0.73-1.906-1.096-3.65-1.096h-1.474v-2.573h1.474
			c1.722,0,2.934-0.359,3.634-1.079c0.701-0.719,1.052-1.616,1.052-2.689c0-0.398-0.039-0.786-0.116-1.162l-0.199-0.863
			l-0.282-1.444l-0.299-1.328c-0.166-0.764-0.249-1.472-0.249-2.125c0-1.217,0.437-2.316,1.31-3.295s2.824-1.469,5.853-1.469h2.604
			v2.573h-2.573c-1.627,0-2.706,0.236-3.237,0.708s-0.797,1.053-0.797,1.741c0,0.488,0.11,1.25,0.332,2.282l0.413,1.893
			c0.22,1.019,0.33,1.843,0.33,2.474c0,0.708-0.118,1.336-0.355,1.884s-0.595,1.082-1.074,1.602
			C576.765,265.96,576.013,266.491,574.988,267.033z"/>
		<path fill="#FFFFFF" d="M150.81,317.86c-2.07,0.697-4.04,1.046-5.91,1.046c-1.859,0-3.511-0.429-4.956-1.286
			c-1.444-0.858-2.571-2.021-3.378-3.486c-0.808-1.467-1.212-3.136-1.212-5.006c0-2.812,0.916-5.146,2.748-7.006
			c1.832-1.859,4.042-2.789,6.632-2.789c1.915,0,3.94,0.359,6.076,1.079v2.972c-2.158-0.985-4.09-1.478-5.794-1.478
			c-1.129,0-2.191,0.279-3.188,0.839c-0.996,0.559-1.766,1.43-2.308,2.614c-0.542,1.185-0.813,2.401-0.813,3.652
			c0,1.671,0.523,3.265,1.569,4.781s2.687,2.274,4.922,2.274c0.675,0,1.339-0.047,1.992-0.141c0.653-0.095,1.859-0.44,3.619-1.038
			V317.86z"/>
		<path fill="#FFFFFF" d="M163.236,318.906c-2.654,0-4.777-0.927-6.369-2.78c-1.592-1.854-2.388-4.192-2.388-7.015
			s0.796-5.157,2.388-7.006s3.715-2.772,6.369-2.772c2.643,0,4.76,0.924,6.352,2.772s2.389,4.184,2.389,7.006
			s-0.796,5.16-2.389,7.015C167.996,317.979,165.878,318.906,163.236,318.906z M163.236,316.333c1.646,0,2.956-0.642,3.928-1.926
			c0.973-1.284,1.459-3.049,1.459-5.296c0-2.235-0.486-3.995-1.459-5.279c-0.972-1.284-2.282-1.926-3.928-1.926
			c-1.658,0-2.973,0.642-3.945,1.926c-0.972,1.284-1.458,3.044-1.458,5.279c0,2.247,0.486,4.012,1.458,5.296
			C160.263,315.691,161.578,316.333,163.236,316.333z"/>
		<path fill="#FFFFFF" d="M176.011,318.392v-18.544h3.088v4.051c0.885-1.428,1.953-2.546,3.204-3.354
			c1.25-0.808,2.501-1.212,3.752-1.212c1.096,0,2.092,0.291,2.988,0.871c0.896,0.582,1.524,1.343,1.884,2.283
			c0.359,0.94,0.54,2.789,0.54,5.545v10.359h-3.088V307.65c0-1.782-0.086-2.958-0.257-3.528c-0.172-0.569-0.487-1.037-0.946-1.402
			c-0.459-0.365-0.96-0.548-1.502-0.548c-1.085,0-2.25,0.515-3.495,1.544s-2.272,2.318-3.08,3.868v10.808H176.011z"/>
		<path fill="#FFFFFF" d="M211.92,317.645c-1.45,0.608-2.501,0.972-3.154,1.087c-0.653,0.117-1.284,0.175-1.893,0.175
			c-1.295,0-2.479-0.249-3.553-0.747c-1.074-0.498-1.884-1.234-2.432-2.208s-0.822-2.479-0.822-4.516v-7.471h-4.632v-2.573h4.632
			v-7.471h3.088v7.471h8.251v2.573h-8.251v7.421c0,1.494,0.177,2.549,0.531,3.162c0.354,0.615,0.827,1.065,1.419,1.354
			c0.592,0.288,1.292,0.432,2.1,0.432c1.494,0,3.065-0.471,4.715-1.411V317.645z"/>
		<path fill="#FFFFFF" d="M232.24,317.157c-2.468,1.166-4.804,1.749-7.006,1.749c-1.671,0-3.166-0.415-4.482-1.244
			c-1.317-0.829-2.372-2.016-3.163-3.558c-0.792-1.543-1.187-3.193-1.187-4.951c0-1.692,0.376-3.318,1.129-4.877
			c0.752-1.56,1.804-2.773,3.154-3.642c1.35-0.867,2.855-1.302,4.516-1.302c2.202,0,3.97,0.785,5.304,2.354
			c1.333,1.569,2,3.989,2,7.26v0.663h-12.783c0,1.287,0.268,2.463,0.805,3.528c0.537,1.065,1.242,1.864,2.117,2.396
			c0.874,0.532,1.87,0.799,2.988,0.799c1.992,0,4.194-0.666,6.607-1.997V317.157z M219.905,307.302h9.247v-0.447
			c0-1.511-0.371-2.714-1.112-3.607c-0.742-0.894-1.732-1.341-2.972-1.341c-1.251,0-2.333,0.455-3.246,1.365
			C220.91,304.183,220.271,305.525,219.905,307.302z"/>
		<path fill="#FFFFFF" d="M237.221,318.392v-18.544h3.088v4.051c0.885-1.428,1.953-2.546,3.204-3.354
			c1.25-0.808,2.501-1.212,3.752-1.212c1.096,0,2.092,0.291,2.988,0.871c0.896,0.582,1.524,1.343,1.884,2.283
			c0.359,0.94,0.54,2.789,0.54,5.545v10.359h-3.088V307.65c0-1.782-0.086-2.958-0.257-3.528c-0.172-0.569-0.487-1.037-0.946-1.402
			c-0.459-0.365-0.96-0.548-1.502-0.548c-1.085,0-2.25,0.515-3.495,1.544s-2.272,2.318-3.08,3.868v10.808H237.221z"/>
		<path fill="#FFFFFF" d="M273.13,317.645c-1.45,0.608-2.501,0.972-3.154,1.087c-0.653,0.117-1.284,0.175-1.893,0.175
			c-1.295,0-2.479-0.249-3.553-0.747c-1.074-0.498-1.884-1.234-2.432-2.208s-0.822-2.479-0.822-4.516v-7.471h-4.632v-2.573h4.632
			v-7.471h3.088v7.471h8.251v2.573h-8.251v7.421c0,1.494,0.177,2.549,0.531,3.162c0.354,0.615,0.827,1.065,1.419,1.354
			c0.592,0.288,1.292,0.432,2.1,0.432c1.494,0,3.065-0.471,4.715-1.411V317.645z"/>
		<path fill="#FFFFFF" d="M285.647,304.745c-0.742,0-1.378-0.266-1.909-0.797s-0.797-1.168-0.797-1.909
			c0-0.753,0.268-1.392,0.805-1.917c0.537-0.526,1.17-0.789,1.901-0.789s1.364,0.263,1.901,0.789
			c0.537,0.525,0.805,1.164,0.805,1.917c0,0.741-0.266,1.378-0.797,1.909S286.389,304.745,285.647,304.745z M285.647,319.172
			c-0.742,0-1.378-0.266-1.909-0.797s-0.797-1.168-0.797-1.909c0-0.753,0.268-1.392,0.805-1.918c0.537-0.525,1.17-0.788,1.901-0.788
			s1.364,0.263,1.901,0.788c0.537,0.526,0.805,1.165,0.805,1.918c0,0.741-0.266,1.378-0.797,1.909S286.389,319.172,285.647,319.172z
			"/>
		<path fill="#FFFFFF" d="M327.6,301.906h-2.225l-1.743-10.31h5.661L327.6,301.906z"/>
		<path fill="#FFFFFF" d="M339.071,317.927v-3.254c2.534,1.284,4.731,1.926,6.591,1.926c1.704,0,3.113-0.518,4.225-1.553
			c1.112-1.034,1.668-2.365,1.668-3.992c0-1.638-0.612-2.972-1.834-4.001c-1.223-1.029-3.301-1.544-6.234-1.544h-1.71v-2.573h2.374
			c2.158,0,3.719-0.484,4.682-1.452c0.963-0.969,1.444-2.045,1.444-3.229c0-1.073-0.393-1.979-1.179-2.714
			c-0.786-0.736-1.992-1.104-3.619-1.104c-1.826,0-3.791,0.515-5.894,1.544v-2.938c2.103-0.786,4.028-1.179,5.777-1.179
			c3.132,0,5.293,0.617,6.483,1.852c1.189,1.233,1.785,2.642,1.785,4.225c0,1.173-0.315,2.274-0.946,3.304s-1.793,1.948-3.486,2.756
			c1.494,0.442,2.623,0.985,3.387,1.627s1.342,1.4,1.735,2.274c0.393,0.874,0.589,1.854,0.589,2.938
			c0,2.413-0.894,4.405-2.681,5.977c-1.788,1.571-4.098,2.357-6.931,2.357c-0.819,0-1.713-0.061-2.681-0.183
			C341.647,318.867,340.466,318.514,339.071,317.927z"/>
		<path fill="#FFFFFF" d="M368.406,301.906h-2.225l-1.743-10.31h5.661L368.406,301.906z"/>
		<path fill="#FFFFFF" d="M384.51,325.597v-2.059c0.797-0.21,1.402-0.512,1.818-0.904c0.414-0.394,0.746-0.892,0.996-1.494
			c0.248-0.604,0.373-1.331,0.373-2.184c-1.029,0-1.787-0.291-2.274-0.871c-0.487-0.582-0.73-1.204-0.73-1.868
			c0-0.764,0.271-1.408,0.813-1.935c0.542-0.525,1.173-0.788,1.893-0.788c0.93,0,1.732,0.401,2.407,1.204
			c0.675,0.802,1.013,1.9,1.013,3.295c0,1.218-0.266,2.365-0.797,3.445c-0.531,1.078-1.254,2-2.166,2.764
			C386.941,324.966,385.826,325.431,384.51,325.597z M387.398,304.745c-0.742,0-1.378-0.266-1.909-0.797s-0.797-1.168-0.797-1.909
			c0-0.753,0.269-1.392,0.806-1.917c0.536-0.526,1.17-0.789,1.9-0.789s1.363,0.263,1.9,0.789c0.537,0.525,0.806,1.164,0.806,1.917
			c0,0.741-0.266,1.378-0.797,1.909S388.14,304.745,387.398,304.745z"/>
		<path fill="#FFFFFF" d="M107.937,348.633c-1.029-0.542-1.785-1.073-2.266-1.594s-0.838-1.055-1.071-1.602
			c-0.232-0.549-0.349-1.177-0.349-1.885c0-0.631,0.105-1.455,0.315-2.474l0.415-1.893c0.221-1.033,0.332-1.799,0.332-2.299
			c0-0.678-0.263-1.252-0.789-1.725c-0.526-0.472-1.608-0.708-3.246-0.708h-2.573v-2.573h2.606c3.032,0,4.989,0.489,5.869,1.47
			c0.88,0.979,1.32,2.077,1.32,3.295c0,0.664-0.089,1.372-0.266,2.125l-0.299,1.328l-0.282,1.444l-0.199,0.863
			c-0.078,0.421-0.116,0.824-0.116,1.212c0,1.019,0.346,1.893,1.038,2.623c0.691,0.73,1.912,1.096,3.661,1.096h1.478v2.573h-1.478
			c-1.727,0-2.941,0.362-3.644,1.087c-0.703,0.726-1.054,1.625-1.054,2.698c0,0.388,0.039,0.77,0.116,1.146l0.199,0.88l0.282,1.444
			l0.299,1.328c0.177,0.764,0.266,1.472,0.266,2.125c0,1.229-0.44,2.327-1.32,3.295c-0.88,0.969-2.836,1.453-5.869,1.453h-2.606
			v-2.573h2.573c1.638,0,2.72-0.235,3.246-0.706c0.525-0.47,0.789-1.048,0.789-1.734c0-0.487-0.111-1.245-0.332-2.274l-0.415-1.893
			c-0.21-1.019-0.315-1.843-0.315-2.474c0-0.708,0.116-1.336,0.349-1.885c0.232-0.547,0.589-1.081,1.071-1.602
			S106.907,349.175,107.937,348.633z"/>
	</g>
	<g opacity="0.6">
		<path d="M75.921,233.472v2.606c-0.93,0.609-1.754,1.01-2.474,1.204c-0.72,0.193-1.494,0.291-2.324,0.291
			c-2.302,0-4.187-0.562-5.653-1.685c-1.467-1.123-2.634-2.689-3.503-4.698c-0.869-2.009-1.303-4.463-1.303-7.363
			c0-4.028,0.924-7.296,2.772-9.803c1.848-2.507,4.344-3.76,7.487-3.76c3.11,0,5.57,1.107,7.379,3.32
			c1.81,2.214,2.714,5.125,2.714,8.732c0,1.594-0.232,2.903-0.696,3.926c-0.464,1.024-1.077,1.837-1.839,2.44
			c-0.762,0.604-1.685,0.905-2.767,0.905c-0.839,0-1.524-0.185-2.055-0.553c-0.53-0.369-0.928-1.22-1.193-2.552
			c-0.311,0.716-0.788,1.413-1.431,2.09c-0.644,0.677-1.514,1.016-2.612,1.016c-1.143,0-2.088-0.517-2.836-1.552
			c-0.749-1.035-1.123-2.305-1.123-3.81c0-1.848,0.535-3.563,1.604-5.146c1.07-1.583,3.001-2.374,5.795-2.374h3.176v7.283
			c0,0.964,0.035,1.649,0.106,2.054c0.07,0.405,0.219,0.709,0.445,0.914c0.227,0.205,0.472,0.308,0.737,0.308
			c0.43,0,0.863-0.208,1.298-0.623c0.436-0.415,0.767-1.001,0.993-1.76c0.226-0.758,0.339-1.58,0.339-2.465
			c0-1.848-0.338-3.644-1.013-5.387c-0.675-1.743-1.677-2.985-3.005-3.727c-1.328-0.741-2.717-1.112-4.167-1.112
			c-1.539,0-2.892,0.462-4.059,1.386c-1.168,0.924-2.125,2.311-2.872,4.159c-0.747,1.849-1.121,3.891-1.121,6.126
			c0,2.247,0.371,4.328,1.112,6.242c0.741,1.915,1.743,3.315,3.005,4.2c1.262,0.886,2.667,1.328,4.217,1.328
			C72.816,235.63,74.438,234.911,75.921,233.472z M72.468,223.371v-4.475h-0.6c-1.31,0-2.254,0.205-2.831,0.616
			c-0.578,0.41-1.033,1.054-1.366,1.93s-0.5,1.841-0.5,2.895c0,0.854,0.133,1.514,0.4,1.979c0.266,0.466,0.632,0.699,1.099,0.699
			c0.655,0,1.324-0.38,2.006-1.14C71.36,225.115,71.957,224.28,72.468,223.371z"/>
		<path d="M82.213,236.792v-18.544h2.706v4.25c0.852-1.804,1.646-3.049,2.382-3.735c0.736-0.686,1.48-1.029,2.233-1.029
			c0.896,0,1.619,0.352,2.167,1.054c0.548,0.703,0.822,1.702,0.822,2.997v0.996c0.365-1.129,0.805-2.044,1.32-2.748
			c0.515-0.703,1.048-1.262,1.602-1.677c0.553-0.415,1.189-0.623,1.909-0.623c0.797,0,1.478,0.338,2.042,1.013
			c0.564,0.675,0.847,2.02,0.847,4.034v14.012h-2.706v-12.667c0-1.04-0.033-1.751-0.1-2.133s-0.199-0.672-0.398-0.872
			s-0.415-0.299-0.647-0.299c-0.576,0-1.193,0.44-1.851,1.32c-0.659,0.88-1.331,2.338-2.017,4.375v10.276h-2.573v-12.65
			c0-1.638-0.161-2.601-0.483-2.889c-0.322-0.288-0.611-0.432-0.866-0.432c-0.566,0-1.175,0.493-1.824,1.478
			c-0.649,0.985-1.269,2.247-1.857,3.785v10.708H82.213z"/>
		<path d="M119.434,235.558c-2.468,1.166-4.804,1.749-7.006,1.749c-1.671,0-3.166-0.415-4.482-1.244
			c-1.317-0.829-2.372-2.015-3.163-3.558c-0.792-1.543-1.187-3.193-1.187-4.952c0-1.692,0.376-3.317,1.129-4.876
			c0.752-1.56,1.804-2.773,3.154-3.641c1.35-0.868,2.855-1.302,4.516-1.302c2.202,0,3.97,0.785,5.304,2.354
			c1.333,1.569,2,3.989,2,7.259v0.663h-12.783c0,1.287,0.268,2.463,0.805,3.528c0.537,1.065,1.242,1.864,2.117,2.396
			c0.874,0.533,1.87,0.799,2.988,0.799c1.992,0,4.194-0.666,6.607-1.997V235.558z M107.099,225.702h9.247v-0.447
			c0-1.512-0.371-2.714-1.112-3.608c-0.742-0.894-1.732-1.341-2.972-1.341c-1.251,0-2.333,0.455-3.246,1.365
			C108.103,222.583,107.464,223.926,107.099,225.702z"/>
		<path d="M136.815,232.623c-0.942,1.55-2.075,2.718-3.399,3.504s-2.541,1.179-3.648,1.179c-1.552,0-2.945-0.669-4.181-2.009
			c-1.236-1.339-1.854-3.37-1.854-6.093c0-2.147,0.41-4.064,1.23-5.752c0.82-1.688,1.917-3.021,3.292-4.001
			c1.374-0.979,3.075-1.469,5.103-1.469c0.587,0,1.474,0.061,2.66,0.183c0.177,0.022,0.443,0.05,0.798,0.083v-8.251h3.088v26.795
			h-3.088V232.623z M136.815,228.95v-7.962c-1.098-0.288-2.118-0.432-3.06-0.432c-1.907,0-3.495,0.737-4.765,2.211
			c-1.27,1.474-1.904,3.479-1.904,6.017c0,1.84,0.346,3.228,1.04,4.164c0.693,0.937,1.482,1.404,2.37,1.404
			c0.964,0,2.029-0.487,3.193-1.463C134.853,231.914,135.895,230.601,136.815,228.95z"/>
		<path d="M150.014,236.792v-15.971h-5.146v-2.573h8.234v15.971h5.163v2.573H150.014z M149.516,211.549
			c0-0.694,0.237-1.212,0.711-1.554s0.92-0.513,1.339-0.513c0.43,0,0.882,0.171,1.356,0.513c0.474,0.342,0.711,0.86,0.711,1.554
			c0,0.684-0.237,1.196-0.711,1.538c-0.474,0.342-0.926,0.513-1.356,0.513c-0.419,0-0.865-0.171-1.339-0.513
			C149.752,212.746,149.516,212.233,149.516,211.549z"/>
		<path d="M177.41,232.644c-0.941,1.543-2.073,2.707-3.396,3.489c-1.323,0.782-2.538,1.174-3.645,1.174
			c-1.55,0-2.942-0.669-4.177-2.009c-1.234-1.339-1.852-3.37-1.852-6.093c0-2.147,0.41-4.064,1.23-5.752
			c0.82-1.688,1.917-3.021,3.291-4.001c1.374-0.979,3.075-1.469,5.103-1.469c0.587,0,1.472,0.061,2.653,0.183
			c0.177,0.022,0.442,0.05,0.795,0.083h3.098v13.095c0,2.237,0.238,4.053,0.714,5.449h-3.221
			C177.755,235.778,177.557,234.396,177.41,232.644z M177.423,228.95v-7.962c-1.098-0.288-2.118-0.432-3.06-0.432
			c-1.907,0-3.495,0.737-4.765,2.211c-1.27,1.474-1.904,3.479-1.904,6.017c0,1.84,0.346,3.228,1.04,4.164
			c0.693,0.937,1.482,1.404,2.37,1.404c0.964,0,2.029-0.487,3.193-1.463C175.46,231.914,176.502,230.601,177.423,228.95z"/>
		<path d="M206.243,235.812v-3.271c1.239,0.808,2.551,1.375,3.935,1.702c1.383,0.327,2.557,0.49,3.52,0.49
			c1.561,0,2.684-0.251,3.37-0.755c0.686-0.503,1.029-1.131,1.029-1.884c0-0.498-0.161-0.924-0.481-1.278
			c-0.321-0.354-1.118-0.791-2.391-1.312l-1.062-0.432l-2.142-0.847c-2.302-0.896-3.752-1.727-4.35-2.49
			c-0.609-0.752-0.913-1.671-0.913-2.756c0-1.527,0.59-2.783,1.77-3.769c1.18-0.985,3.095-1.478,5.744-1.478
			c1.983,0,3.861,0.288,5.635,0.863v2.806c-2.04-0.73-3.958-1.096-5.754-1.096c-1.308,0-2.331,0.23-3.068,0.689
			c-0.737,0.459-1.106,1.032-1.106,1.718c0,0.664,0.321,1.195,0.963,1.594c0.631,0.398,1.661,0.858,3.09,1.378l2.094,0.764
			c1.917,0.697,3.262,1.456,4.033,2.274c0.772,0.819,1.158,1.843,1.158,3.071c0,1.605-0.617,2.925-1.851,3.959
			c-1.234,1.035-3.207,1.552-5.918,1.552C211.179,237.307,208.744,236.809,206.243,235.812z"/>
		<path d="M242.036,236.261c-2.07,0.697-4.04,1.046-5.91,1.046c-1.859,0-3.511-0.429-4.956-1.287s-2.571-2.02-3.378-3.486
			c-0.808-1.466-1.212-3.135-1.212-5.005c0-2.811,0.916-5.146,2.748-7.006c1.832-1.859,4.042-2.789,6.632-2.789
			c1.915,0,3.94,0.36,6.076,1.079v2.972c-2.158-0.985-4.09-1.478-5.794-1.478c-1.129,0-2.191,0.28-3.188,0.838
			c-0.996,0.559-1.766,1.431-2.308,2.615c-0.542,1.185-0.813,2.402-0.813,3.652c0,1.671,0.523,3.265,1.569,4.781
			c1.046,1.517,2.687,2.274,4.922,2.274c0.675,0,1.339-0.047,1.992-0.141c0.653-0.094,1.859-0.44,3.619-1.038V236.261z"/>
		<path d="M248.411,236.792v-18.544h3.088v4.051c0.963-1.527,2.067-2.67,3.312-3.428c1.245-0.758,2.631-1.137,4.159-1.137
			c1.118,0,2.235,0.172,3.354,0.515v6.69h-2.972v-4.233c-0.521-0.088-0.93-0.133-1.229-0.133c-1.151,0-2.28,0.454-3.387,1.361
			c-1.107,0.908-2.186,2.269-3.237,4.084v10.774H248.411z"/>
		<path d="M282.66,235.558c-2.468,1.166-4.804,1.749-7.006,1.749c-1.671,0-3.166-0.415-4.482-1.244
			c-1.317-0.829-2.372-2.015-3.163-3.558c-0.792-1.543-1.187-3.193-1.187-4.952c0-1.692,0.376-3.317,1.129-4.876
			c0.752-1.56,1.804-2.773,3.154-3.641c1.35-0.868,2.855-1.302,4.516-1.302c2.202,0,3.97,0.785,5.304,2.354
			c1.333,1.569,2,3.989,2,7.259v0.663h-12.783c0,1.287,0.268,2.463,0.805,3.528c0.537,1.065,1.242,1.864,2.117,2.396
			c0.874,0.533,1.87,0.799,2.988,0.799c1.992,0,4.194-0.666,6.607-1.997V235.558z M270.325,225.702h9.247v-0.447
			c0-1.512-0.371-2.714-1.112-3.608c-0.742-0.894-1.732-1.341-2.972-1.341c-1.251,0-2.333,0.455-3.246,1.365
			C271.33,222.583,270.69,223.926,270.325,225.702z"/>
		<path d="M303.063,235.558c-2.468,1.166-4.804,1.749-7.006,1.749c-1.671,0-3.166-0.415-4.482-1.244
			c-1.317-0.829-2.372-2.015-3.163-3.558c-0.792-1.543-1.187-3.193-1.187-4.952c0-1.692,0.376-3.317,1.129-4.876
			c0.752-1.56,1.804-2.773,3.154-3.641c1.35-0.868,2.855-1.302,4.516-1.302c2.202,0,3.97,0.785,5.304,2.354
			c1.333,1.569,2,3.989,2,7.259v0.663h-12.783c0,1.287,0.268,2.463,0.805,3.528c0.537,1.065,1.242,1.864,2.117,2.396
			c0.874,0.533,1.87,0.799,2.988,0.799c1.992,0,4.194-0.666,6.607-1.997V235.558z M290.729,225.702h9.247v-0.447
			c0-1.512-0.371-2.714-1.112-3.608c-0.742-0.894-1.732-1.341-2.972-1.341c-1.251,0-2.333,0.455-3.246,1.365
			C291.733,222.583,291.094,223.926,290.729,225.702z"/>
		<path d="M308.044,236.792v-18.544h3.088v4.051c0.885-1.428,1.953-2.545,3.204-3.354c1.25-0.808,2.501-1.212,3.752-1.212
			c1.096,0,2.092,0.291,2.988,0.872s1.524,1.342,1.884,2.283c0.359,0.941,0.54,2.789,0.54,5.545v10.359h-3.088v-10.741
			c0-1.782-0.086-2.958-0.257-3.528c-0.172-0.57-0.487-1.038-0.946-1.403c-0.459-0.365-0.96-0.548-1.502-0.548
			c-1.085,0-2.25,0.515-3.495,1.544s-2.272,2.319-3.08,3.868v10.808H308.044z"/>
		<path d="M361.04,232.644c-0.94,1.543-2.073,2.707-3.396,3.489c-1.323,0.782-2.538,1.174-3.645,1.174
			c-1.55,0-2.942-0.669-4.177-2.009c-1.234-1.339-1.852-3.37-1.852-6.093c0-2.147,0.41-4.064,1.23-5.752
			c0.82-1.688,1.917-3.021,3.291-4.001c1.374-0.979,3.075-1.469,5.103-1.469c0.587,0,1.472,0.061,2.654,0.183
			c0.176,0.022,0.441,0.05,0.795,0.083h3.098v13.095c0,2.237,0.238,4.053,0.714,5.449h-3.221
			C361.385,235.778,361.188,234.396,361.04,232.644z M361.053,228.95v-7.962c-1.098-0.288-2.118-0.432-3.06-0.432
			c-1.907,0-3.495,0.737-4.765,2.211c-1.27,1.474-1.904,3.479-1.904,6.017c0,1.84,0.346,3.228,1.04,4.164
			c0.693,0.937,1.482,1.404,2.37,1.404c0.964,0,2.029-0.487,3.193-1.463C359.09,231.914,360.133,230.601,361.053,228.95z"/>
		<path d="M369.254,236.792v-18.544h3.088v4.051c0.885-1.428,1.953-2.545,3.204-3.354c1.251-0.808,2.501-1.212,3.752-1.212
			c1.096,0,2.092,0.291,2.988,0.872s1.524,1.342,1.884,2.283c0.359,0.941,0.54,2.789,0.54,5.545v10.359h-3.088v-10.741
			c0-1.782-0.086-2.958-0.257-3.528c-0.172-0.57-0.488-1.038-0.947-1.403s-0.96-0.548-1.502-0.548c-1.085,0-2.25,0.515-3.494,1.544
			c-1.246,1.029-2.272,2.319-3.08,3.868v10.808H369.254z"/>
		<path d="M402.059,232.623c-0.942,1.55-2.075,2.718-3.399,3.504s-2.54,1.179-3.648,1.179c-1.552,0-2.945-0.669-4.181-2.009
			c-1.236-1.339-1.854-3.37-1.854-6.093c0-2.147,0.41-4.064,1.23-5.752c0.819-1.688,1.916-3.021,3.291-4.001
			c1.374-0.979,3.075-1.469,5.104-1.469c0.587,0,1.473,0.061,2.659,0.183c0.177,0.022,0.442,0.05,0.798,0.083v-8.251h3.088v26.795
			h-3.088V232.623z M402.059,228.95v-7.962c-1.098-0.288-2.117-0.432-3.061-0.432c-1.906,0-3.494,0.737-4.764,2.211
			c-1.27,1.474-1.904,3.479-1.904,6.017c0,1.84,0.346,3.228,1.039,4.164s1.482,1.404,2.37,1.404c0.964,0,2.028-0.487,3.192-1.463
			C400.096,231.914,401.139,230.601,402.059,228.95z"/>
		<path d="M445.688,242.968c-3.066-0.188-5.65-1.054-7.753-2.598s-3.782-3.627-5.038-6.25c-1.257-2.623-1.885-5.251-1.885-7.886
			c0-2.634,0.628-5.263,1.885-7.886c1.256-2.623,2.936-4.707,5.038-6.25s4.687-2.416,7.753-2.615v2.573
			c-2.316,0.21-4.309,0.989-5.977,2.334c-1.669,1.346-2.979,3.059-3.933,5.141s-1.43,4.313-1.43,6.694s0.477,4.612,1.43,6.694
			s2.264,3.793,3.933,5.133c1.668,1.34,3.66,2.121,5.977,2.342V242.968z"/>
		<path d="M449.473,236.792v-18.544h2.706v4.25c0.853-1.804,1.646-3.049,2.382-3.735c0.736-0.686,1.48-1.029,2.233-1.029
			c0.896,0,1.618,0.352,2.167,1.054c0.547,0.703,0.821,1.702,0.821,2.997v0.996c0.365-1.129,0.806-2.044,1.319-2.748
			c0.516-0.703,1.049-1.262,1.603-1.677s1.189-0.623,1.909-0.623c0.797,0,1.478,0.338,2.042,1.013
			c0.564,0.675,0.847,2.02,0.847,4.034v14.012h-2.706v-12.667c0-1.04-0.033-1.751-0.1-2.133s-0.199-0.672-0.398-0.872
			s-0.415-0.299-0.647-0.299c-0.576,0-1.193,0.44-1.852,1.32s-1.33,2.338-2.017,4.375v10.276h-2.573v-12.65
			c0-1.638-0.161-2.601-0.482-2.889c-0.322-0.288-0.611-0.432-0.867-0.432c-0.566,0-1.174,0.493-1.824,1.478
			c-0.648,0.985-1.268,2.247-1.856,3.785v10.708H449.473z"/>
		<path d="M476.467,236.792v-15.971h-5.146v-2.573h8.234v15.971h5.163v2.573H476.467z M475.969,211.549
			c0-0.694,0.236-1.212,0.711-1.554s0.92-0.513,1.34-0.513c0.43,0,0.881,0.171,1.355,0.513c0.474,0.342,0.711,0.86,0.711,1.554
			c0,0.684-0.237,1.196-0.711,1.538c-0.475,0.342-0.926,0.513-1.355,0.513c-0.42,0-0.865-0.171-1.34-0.513
			C476.205,212.746,475.969,212.233,475.969,211.549z"/>
		<path d="M491.674,236.792v-18.544h3.088v4.051c0.885-1.428,1.953-2.545,3.204-3.354c1.251-0.808,2.501-1.212,3.752-1.212
			c1.096,0,2.092,0.291,2.988,0.872s1.524,1.342,1.884,2.283c0.359,0.941,0.54,2.789,0.54,5.545v10.359h-3.088v-10.741
			c0-1.782-0.086-2.958-0.257-3.528c-0.172-0.57-0.488-1.038-0.947-1.403s-0.96-0.548-1.502-0.548c-1.085,0-2.25,0.515-3.494,1.544
			c-1.246,1.029-2.272,2.319-3.08,3.868v10.808H491.674z"/>
		<path d="M513.272,227.645v-2.573h12.883v2.573H513.272z"/>
		<path d="M533.261,236.792l-3.021-18.544h2.877l1.763,11.289l0.466,2.623l0.446-2.623l2.948-11.289h2.772l3.344,11.289l0.583,2.623
			l0.381-2.623l1.773-11.289h2.369l-3.005,18.544h-2.889l-3.553-11.937l-0.564-2.623h-0.083l-0.515,2.606l-3.088,11.953H533.261z"/>
		<path d="M558.08,236.792v-15.971h-5.146v-2.573h8.234v15.971h5.163v2.573H558.08z M557.582,211.549
			c0-0.694,0.237-1.212,0.711-1.554s0.921-0.513,1.34-0.513c0.43,0,0.881,0.171,1.355,0.513c0.474,0.342,0.711,0.86,0.711,1.554
			c0,0.684-0.237,1.196-0.711,1.538c-0.475,0.342-0.926,0.513-1.355,0.513c-0.419,0-0.866-0.171-1.34-0.513
			C557.819,212.746,557.582,212.233,557.582,211.549z"/>
		<path d="M585.688,232.623c-0.942,1.55-2.075,2.718-3.399,3.504s-2.54,1.179-3.648,1.179c-1.552,0-2.945-0.669-4.181-2.009
			c-1.236-1.339-1.854-3.37-1.854-6.093c0-2.147,0.41-4.064,1.23-5.752c0.819-1.688,1.917-3.021,3.291-4.001
			s3.075-1.469,5.103-1.469c0.588,0,1.474,0.061,2.66,0.183c0.177,0.022,0.443,0.05,0.798,0.083v-8.251h3.088v26.795h-3.088V232.623
			z M585.688,228.95v-7.962c-1.098-0.288-2.118-0.432-3.06-0.432c-1.907,0-3.495,0.737-4.765,2.211
			c-1.27,1.474-1.904,3.479-1.904,6.017c0,1.84,0.347,3.228,1.039,4.164c0.693,0.937,1.483,1.404,2.37,1.404
			c0.964,0,2.028-0.487,3.192-1.463C583.727,231.914,584.769,230.601,585.688,228.95z"/>
		<path d="M609.196,236.045c-1.45,0.609-2.501,0.971-3.154,1.087s-1.284,0.174-1.893,0.174c-1.295,0-2.479-0.249-3.553-0.747
			s-1.884-1.234-2.433-2.208c-0.547-0.974-0.821-2.479-0.821-4.516v-7.471h-4.632v-2.573h4.632v-7.471h3.088v7.471h8.251v2.573
			h-8.251v7.421c0,1.494,0.177,2.548,0.531,3.163s0.827,1.065,1.419,1.353c0.593,0.288,1.293,0.432,2.101,0.432
			c1.494,0,3.065-0.47,4.715-1.411V236.045z"/>
		<path d="M614.094,236.792v-26.795h3.088v12.302c0.886-1.428,1.953-2.545,3.204-3.354c1.251-0.808,2.501-1.212,3.752-1.212
			c1.052,0,2.012,0.269,2.881,0.805c0.868,0.537,1.475,1.187,1.817,1.951c0.276,0.587,0.465,1.209,0.564,1.868
			c0.1,0.659,0.149,2.017,0.149,4.076v10.359h-3.088v-10.741c0-1.782-0.086-2.958-0.258-3.528c-0.171-0.57-0.486-1.038-0.945-1.403
			c-0.46-0.365-0.961-0.548-1.503-0.548c-1.085,0-2.249,0.515-3.495,1.544c-1.244,1.029-2.271,2.319-3.079,3.868v10.808H614.094z"/>
		<path d="M642.117,223.146c-0.741,0-1.378-0.266-1.909-0.797s-0.797-1.167-0.797-1.909c0-0.752,0.269-1.392,0.806-1.917
			c0.536-0.525,1.17-0.789,1.9-0.789s1.364,0.263,1.9,0.789c0.537,0.526,0.806,1.165,0.806,1.917c0,0.742-0.266,1.378-0.797,1.909
			S642.858,223.146,642.117,223.146z M642.117,237.572c-0.741,0-1.378-0.266-1.909-0.797s-0.797-1.167-0.797-1.909
			c0-0.752,0.269-1.392,0.806-1.917c0.536-0.525,1.17-0.789,1.9-0.789s1.364,0.263,1.9,0.789c0.537,0.526,0.806,1.165,0.806,1.917
			c0,0.742-0.266,1.378-0.797,1.909S642.858,237.572,642.117,237.572z"/>
		<path d="M677.578,224.706c0.797-1.184,1.785-2.15,2.963-2.897c1.18-0.747,2.477-1.121,3.894-1.121c1.339,0,2.609,0.327,3.81,0.979
			c1.201,0.653,2.117,1.563,2.748,2.731c0.631,1.168,0.946,2.526,0.946,4.076c0,2.446-0.783,4.574-2.349,6.383
			c-1.566,1.81-3.628,2.714-6.185,2.714c-3.011,0-5.26-1.259-6.749-3.777c-1.488-2.518-2.232-5.719-2.232-9.604
			c0-4.294,0.946-7.689,2.839-10.185c1.893-2.496,4.455-3.744,7.687-3.744c1.737,0,3.426,0.255,5.063,0.764v3.121
			c-1.837-0.874-3.569-1.312-5.196-1.312c-2.302,0-4.084,1.057-5.346,3.171c-1.262,2.114-1.893,4.792-1.893,8.035V224.706z
			 M683.638,234.999c0.83,0,1.666-0.246,2.507-0.739c0.841-0.492,1.502-1.25,1.984-2.274c0.48-1.023,0.722-2.139,0.722-3.345
			c0-1.571-0.407-2.861-1.22-3.868c-0.814-1.007-1.974-1.511-3.479-1.511c-1.561,0-2.842,0.584-3.844,1.751
			c-1.001,1.168-1.502,2.587-1.502,4.258c0,1.683,0.49,3.058,1.469,4.125C681.256,234.465,682.376,234.999,683.638,234.999z"/>
		<path d="M703.327,210.263c2.933,0,5.169,1.231,6.707,3.694c1.538,2.463,2.308,5.78,2.308,9.953c0,4.184-0.77,7.507-2.308,9.969
			c-1.538,2.463-3.774,3.694-6.707,3.694c-2.922,0-5.154-1.231-6.699-3.694c-1.543-2.462-2.315-5.786-2.315-9.969
			c0-4.172,0.772-7.49,2.315-9.953C698.173,211.494,700.405,210.263,703.327,210.263z M698.295,229.417l8.899-13.959
			c-0.563-1.028-1.174-1.722-1.831-2.082c-0.657-0.359-1.34-0.539-2.047-0.539c-1.845,0-3.248,1.026-4.209,3.079
			c-0.961,2.053-1.441,4.656-1.441,7.809c0,0.719,0.022,1.494,0.066,2.324C697.776,226.877,697.964,228,698.295,229.417z
			 M708.309,218.53l-8.836,14.045c0.476,0.808,1.022,1.414,1.642,1.818c0.618,0.404,1.31,0.606,2.072,0.606
			c2.1,0,3.592-1.176,4.476-3.528c0.884-2.352,1.326-4.961,1.326-7.828C708.988,221.873,708.762,220.168,708.309,218.53z"/>
		<path d="M722.967,234.219v-19.873c-0.93,0.738-1.832,1.366-2.706,1.884c-0.874,0.518-2.075,1.047-3.603,1.586v-2.789
			c2.424-1.029,4.526-2.363,6.309-4.001h3.088v23.192h6.192v2.573h-15.589v-2.573H722.967z"/>
		<path d="M739.369,222.417c0.952-1.55,2.086-2.718,3.403-3.504s2.529-1.179,3.636-1.179c1.55,0,2.944,0.67,4.184,2.009
			c1.239,1.339,1.859,3.37,1.859,6.093c0,2.147-0.412,4.065-1.237,5.752c-0.824,1.688-1.923,3.021-3.295,4.001
			s-3.071,1.469-5.097,1.469c-0.575,0-1.461-0.061-2.656-0.183c-0.177-0.022-0.442-0.05-0.797-0.083v7.205h-3.088v-25.749h3.088
			V222.417z M739.369,226.09v7.962c1.118,0.288,2.147,0.432,3.088,0.432c1.87,0,3.444-0.734,4.724-2.202
			c1.277-1.468,1.917-3.477,1.917-6.025c0-1.851-0.349-3.241-1.046-4.172s-1.488-1.396-2.374-1.396
			c-0.963,0-2.022,0.488-3.179,1.463C741.342,223.126,740.299,224.439,739.369,226.09z"/>
		<path d="M758.851,236.792h-3.569l7.272-9.671l-6.81-8.873h3.967l4.806,6.262l4.708-6.262h3.507l-6.43,8.589l7.64,9.955h-3.966
			l-5.632-7.339L758.851,236.792z"/>
		<path d="M777.354,209.482c3.065,0.199,5.65,1.071,7.753,2.615s3.782,3.627,5.039,6.25c1.256,2.623,1.884,5.252,1.884,7.886
			c0,2.634-0.628,5.263-1.884,7.886c-1.257,2.623-2.937,4.707-5.039,6.25s-4.688,2.41-7.753,2.598v-2.573
			c2.313-0.222,4.303-1.002,5.968-2.342c1.666-1.34,2.978-3.051,3.936-5.133c0.957-2.082,1.436-4.313,1.436-6.694
			s-0.479-4.612-1.436-6.694c-0.958-2.082-2.27-3.795-3.936-5.141c-1.665-1.345-3.654-2.124-5.968-2.334V209.482z"/>
		<path d="M71.937,389.434c-1.029-0.542-1.785-1.073-2.266-1.594s-0.838-1.055-1.071-1.602c-0.232-0.549-0.349-1.177-0.349-1.885
			c0-0.631,0.105-1.455,0.315-2.474l0.415-1.893c0.221-1.033,0.332-1.799,0.332-2.299c0-0.678-0.263-1.252-0.789-1.725
			c-0.526-0.472-1.608-0.708-3.246-0.708h-2.573v-2.573h2.606c3.032,0,4.989,0.489,5.869,1.47c0.88,0.979,1.32,2.077,1.32,3.295
			c0,0.664-0.089,1.372-0.266,2.125l-0.299,1.328l-0.282,1.444l-0.199,0.863c-0.078,0.421-0.116,0.824-0.116,1.212
			c0,1.019,0.346,1.893,1.038,2.623c0.691,0.73,1.912,1.096,3.661,1.096h1.478v2.573h-1.478c-1.727,0-2.941,0.362-3.644,1.087
			c-0.703,0.726-1.054,1.625-1.054,2.698c0,0.388,0.039,0.77,0.116,1.146l0.199,0.88l0.282,1.444l0.299,1.328
			c0.177,0.764,0.266,1.472,0.266,2.125c0,1.229-0.44,2.327-1.32,3.295c-0.88,0.969-2.836,1.453-5.869,1.453h-2.606v-2.573h2.573
			c1.638,0,2.72-0.235,3.246-0.706c0.525-0.47,0.789-1.048,0.789-1.734c0-0.487-0.111-1.245-0.332-2.274l-0.415-1.893
			c-0.21-1.019-0.315-1.843-0.315-2.474c0-0.708,0.116-1.336,0.349-1.885c0.232-0.547,0.589-1.081,1.071-1.602
			S70.907,389.976,71.937,389.434z"/>
	</g>
</g>
</svg>
