<?xml version="1.0" encoding="UTF-8" standalone="no"?>
<svg width="800px" height="450px" viewBox="0 0 800 450" version="1.1" xmlns="http://www.w3.org/2000/svg" xmlns:xlink="http://www.w3.org/1999/xlink">
    <!-- Generator: Sketch 3.7.1 (28215) - http://www.bohemiancoding.com/sketch -->
    <title>Group</title>
    <desc>Created with Sketch.</desc>
    <defs>
        <rect id="path-1" x="0" y="0.458604651" width="800" height="450"></rect>
        <polygon id="path-3" points="0 1.01515965 799.894139 1.01515965 799.894139 537.089512 0 537.089512"></polygon>
        <polygon id="path-5" points="0 1.01515965 799.894139 1.01515965 799.894139 537.089512 0 537.089512"></polygon>
        <polygon id="path-7" points="0 1.01515965 799.894139 1.01515965 799.894139 537.089512 0 537.089512"></polygon>
        <polygon id="path-9" points="0 1.01515965 799.894139 1.01515965 799.894139 537.089512 0 537.089512"></polygon>
        <polygon id="path-11" points="0 1.01515965 799.894139 1.01515965 799.894139 537.089512 0 537.089512"></polygon>
    </defs>
    <g id="Page-1" stroke="none" stroke-width="1" fill="none" fill-rule="evenodd">
        <g id="Group" transform="translate(0.000000, -0.458605)">
            <mask id="mask-2" fill="white">
                <use xlink:href="#path-1"></use>
            </mask>
            <use id="Rectangle-1" fill="#D8D8D8" xlink:href="#path-1"></use>
            <g id="Fill-400-Clipped" mask="url(#mask-2)">
                <g transform="translate(0.000000, -44.000000)">
                    <mask id="mask-4" fill="white">
                        <use xlink:href="#path-3"></use>
                    </mask>
                    <g id="path-1" stroke="none" fill="none"></g>
                    <polygon id="Fill-400" stroke="none" fill="#E62420" fill-rule="evenodd" mask="url(#mask-4)" points="799.894139 537.089512 0 537.089512 0 1.01515965 799.894139 1.01515965"></polygon>
                </g>
            </g>
            <g id="Fill-401-Clipped" mask="url(#mask-2)">
                <g transform="translate(0.000000, -44.000000)">
                    <mask id="mask-6" fill="white">
                        <use xlink:href="#path-5"></use>
                    </mask>
                    <g id="path-1" stroke="none" fill="none"></g>
                    <path d="M153.938817,410.646933 L153.990123,410.618084 C144.831985,394.879475 141.567634,380.679466 141.561221,372.640274 L141.432956,160.717171 C141.420129,138.538874 160.9421,104.564633 180.124167,93.4097732 L240.844935,58.1052832 L364.390019,-12.5581891 C371.23297,-16.4816225 384.925285,-20.6614895 402.81508,-20.6614895 C421.035158,-20.6614895 434.955144,-16.3469949 441.919947,-12.304961 L625.239843,94.1245818 C631.002159,97.4678343 636.786921,102.894609 642.074656,109.417638 C642.504345,109.949738 642.92762,110.472221 643.354102,111.026759 C643.764551,111.555653 644.16538,112.10378 644.569415,112.645495 C646.743511,115.604098 648.904781,118.831955 650.982678,122.402792 C660.140816,138.147813 663.408373,152.344616 663.417993,160.393424 L663.555878,372.310116 C663.578325,394.482003 644.046734,428.456244 624.864667,439.607898 L565.137955,474.335412 L440.589195,545.585476 C433.739831,549.505704 420.053929,553.691982 402.167341,553.691982 L402.167341,554.445256 L402.157721,554.445256 L402.157721,553.691982 C383.947263,553.691982 370.027277,549.374282 363.068887,545.338659 L179.748991,438.893089 C173.864823,435.479318 167.951795,429.901888 162.571068,423.192945 C162.365844,422.936511 162.167033,422.689694 161.961808,422.42685 C161.342929,421.638316 160.740082,420.814524 160.137235,419.997142 C158.052925,417.137907 155.984648,414.044678 153.99333,410.624495 L153.942024,410.653344 C153.942024,410.650138 153.938817,410.650138 153.938817,410.646933 M708.432681,89.2619604 C708.394202,89.1946466 708.362135,89.1273328 708.323656,89.060019 C707.874727,88.2907183 707.377699,87.5502664 706.915945,86.7841712 C705.912269,85.139791 704.93104,83.4857945 703.879265,81.876674 C691.383023,62.5704325 675.333834,45.9599488 657.864108,35.859672 L473.601463,-70.6371845 C434.08294,-93.4725928 369.466116,-93.3988682 330.00852,-70.4544756 L207.973759,0.503895246 L146.701451,35.5519518 C107.08673,58.2174728 74.6612755,114.087934 74.6612755,159.71708 L74.6612755,371.620951 C74.6612755,394.857037 83.0626491,420.782469 96.4920204,443.675575 C96.5465331,443.768532 96.5914259,443.864695 96.6459387,443.957652 L96.6619718,443.951241 L96.6459387,443.957652 L96.6491453,443.964063 C97.3000914,445.082754 98.0151702,446.15657 98.6885627,447.259234 C99.4741873,448.52858 100.227746,449.817159 101.045437,451.067273 C113.551298,470.411979 129.619727,487.057722 147.121519,497.167615 L331.400198,603.658061 C370.912307,626.496675 435.522718,626.416539 474.983521,603.472147 L597.752601,532.087455 L658.287383,497.456103 C697.902104,474.796993 730.317939,418.929737 730.317939,373.29418 L730.317939,161.393515 C730.317939,138.134991 721.894119,112.174299 708.432681,89.2619604" id="Fill-401" stroke="none" fill="#FEFEFE" fill-rule="evenodd" mask="url(#mask-6)"></path>
                </g>
            </g>
            <g id="Fill-402-Clipped" mask="url(#mask-2)">
                <g transform="translate(0.000000, -44.000000)">
                    <mask id="mask-8" fill="white">
                        <use xlink:href="#path-7"></use>
                    </mask>
                    <g id="path-1" stroke="none" fill="none"></g>
                    <polygon id="Fill-402" stroke="none" fill="#FEFEFE" fill-rule="evenodd" mask="url(#mask-8)" points="318.150398 147.758301 306.333962 197.660272 334.53949 197.660272 371.614559 261.329519 303.912956 331.470508 275.701015 331.470508 263.878166 381.369273 337.957759 381.369273 397.665231 312.18991 430.54282 381.369273 506.475845 381.369273 517.846559 331.470508 489.624998 331.470508 447.117896 259.207531 506.039743 197.660272 530.631398 197.660272 541.970045 147.758301 472.636267 147.758301 421.439194 208.856802 391.986287 147.758301"></polygon>
                </g>
            </g>
            <g id="Stroke-403-Clipped" mask="url(#mask-2)">
                <g transform="translate(0.000000, -44.000000)">
                    <mask id="mask-10" fill="white">
                        <use xlink:href="#path-9"></use>
                    </mask>
                    <g id="path-1" stroke="none" fill="none"></g>
                    <path d="M139.233207,402.90905 L139.284513,402.880202 C130.126374,387.141592 126.862024,372.941584 126.855611,364.902392 L126.727345,152.979289 C126.714519,130.800991 146.236489,96.8267504 165.418557,85.6718906 L226.139324,50.3674006 L349.684409,-20.2960717 C356.52736,-24.2195051 370.219675,-28.3993721 388.10947,-28.3993721 C406.329548,-28.3993721 420.249534,-24.0848775 427.214337,-20.0428436 L610.534232,86.3866992 C616.296548,89.7299517 622.081311,95.1567268 627.369046,101.679755 C627.798734,102.211855 628.22201,102.734338 628.648492,103.288876 C629.05894,103.81777 629.459769,104.365897 629.863805,104.907613 C632.037901,107.866215 634.19917,111.094072 636.277067,114.66491 C645.435206,130.40993 648.702763,144.606733 648.712383,152.655541 L648.850268,364.572233 C648.872714,386.74412 629.341124,420.718361 610.159056,431.870015 L550.432345,466.59753 L425.883585,537.847594 C419.03422,541.767822 405.348319,545.9541 387.46173,545.9541 L387.46173,546.707373 L387.45211,546.707373 L387.45211,545.9541 C369.241652,545.9541 355.321666,541.6364 348.363277,537.600777 L165.043381,431.155207 C159.159213,427.741435 153.246185,422.164005 147.865458,415.455062 C147.660234,415.198629 147.461422,414.951811 147.256198,414.688967 C146.637318,413.900434 146.034472,413.076641 145.431625,412.259259 C143.347315,409.400025 141.279038,406.306795 139.28772,402.886612 L139.236413,402.915461 C139.236413,402.912256 139.233207,402.912256 139.233207,402.90905 L139.233207,402.90905 L139.233207,402.90905 Z M693.727071,81.5240778 C693.688591,81.456764 693.656525,81.3894502 693.618045,81.3221364 C693.169117,80.5528357 692.672089,79.8123838 692.210334,79.0462886 C691.206659,77.4019084 690.225429,75.7447065 689.173654,74.1387914 C676.677413,54.8325499 660.628224,38.2220662 643.158498,28.1217894 L458.895852,-78.3750671 C419.37733,-101.210475 354.760506,-101.136751 315.30291,-78.1923582 L193.268148,-7.23398736 L131.99584,27.8140691 C92.3811192,50.4795902 59.9556651,106.350052 59.9556651,151.979198 L59.9556651,363.883068 C59.9556651,387.119154 68.3570387,413.044587 81.7864099,435.937693 C81.8409227,436.03065 81.8858155,436.126812 81.9403282,436.21977 L81.9563614,436.213359 L81.9403282,436.21977 L81.9435349,436.22618 C82.594481,437.344872 83.3095597,438.418687 83.9829523,439.521352 C84.7685769,440.790698 85.5221352,442.079276 86.3398262,443.32939 C98.8456876,462.674096 114.914116,479.31984 132.415909,489.429733 L316.694588,595.920178 C356.206697,618.758792 420.817107,618.678657 460.27791,595.734264 L583.04699,524.349572 L643.581773,489.71822 C683.196494,467.05911 715.612328,411.191854 715.612328,365.556297 L715.612328,153.655632 C715.612328,130.397109 707.188508,104.436416 693.727071,81.5240778 L693.727071,81.5240778 L693.727071,81.5240778 Z" id="Stroke-403" stroke="#030404" stroke-width="1" fill="none" mask="url(#mask-10)"></path>
                </g>
            </g>
            <g id="Stroke-404-Clipped" mask="url(#mask-2)">
                <g transform="translate(0.000000, -44.000000)">
                    <mask id="mask-12" fill="white">
                        <use xlink:href="#path-11"></use>
                    </mask>
                    <g id="path-1" stroke="none" fill="none"></g>
                    <polygon id="Stroke-404" stroke="#030404" stroke-width="1" fill="none" mask="url(#mask-12)" points="303.444788 140.020419 291.628352 189.922389 319.833879 189.922389 356.908949 253.591636 289.207345 323.732625 260.995405 323.732625 249.172556 373.63139 323.252148 373.63139 382.95962 304.452027 415.837209 373.63139 491.770235 373.63139 503.140949 323.732625 474.919388 323.732625 432.412286 251.469648 491.334133 189.922389 515.925787 189.922389 527.264435 140.020419 457.930656 140.020419 406.733583 201.118919 377.280676 140.020419"></polygon>
                </g>
            </g>
        </g>
    </g>
</svg>